<svg width="36" height="32" viewBox="0 0 36 32" fill="none" xmlns="http://www.w3.org/2000/svg">
<path d="M17.2884 0.645752V3.50603H14.4126V4.25908H17.2884V7.11936H18.3034V4.25908H21.1763V3.50603H18.3034V0.645752H17.7959H17.2884ZM26.0821 3.58263L26.0792 5.68987V7.7971H21.7669V9.00067H26.0792V13.1398H27.6003L27.6163 11.0858L27.6455 9.03962L29.7819 9.01366L31.9111 9.00067V7.7971H27.6046V3.58263H26.8434H26.0821ZM7.98859 3.66054V7.80229H3.63401V9.00327H7.98859V13.145H9.42505V9.00197H13.819V7.80099H9.42505V3.66054H8.70755H7.98859ZM16.864 10.5029V15.1679H12.0471V16.7103H16.8655V21.3792H18.7321V16.7103H23.5578V15.1679H18.7307V10.5029H17.8017H16.864ZM31.0405 12.5153V15.399H28.1063V16.4519H31.0405V19.3875H32.334V16.4519H35.293V15.399H32.334V12.5166H31.7186L31.0405 12.5153ZM3.17026 12.6854V15.508H0.292969V16.3143H3.17026V19.1629H4.14297V16.3143H7.05964V15.5093H4.09776V12.6841H3.63401L3.17026 12.6854ZM26.0792 18.5488V22.7736H21.6809V23.9772H26.0792V28.154H27.6426V23.9785H31.9971V22.7736H27.6426V18.5488H26.8653H26.0792ZM7.90401 18.5592V22.7736H3.59172V23.9785H7.90401V28.119H9.50964V23.9785H13.819V22.7736H9.50964V18.5579H8.70755L7.90401 18.5592ZM17.1148 24.503L17.1178 25.9351V27.3633H14.2434V28.4176H17.1178V31.3545H18.4711L18.4886 29.9016L18.5134 28.4176H21.3848V27.3633H18.4682V24.503H17.7901H17.1148Z" fill="#A9A9A9"/>
</svg>
