<svg width="49" height="50" viewBox="0 0 49 50" fill="none" xmlns="http://www.w3.org/2000/svg">
<path d="M41.153 26.1216H34.7376C34.0519 26.1216 33.709 26.1216 33.4517 26.3082C33.1944 26.4949 33.088 26.8208 32.8752 27.4726L31.7982 30.7705C31.5855 31.4223 31.479 31.7483 31.2217 31.9349C30.9644 32.1216 30.6216 32.1216 29.9358 32.1216H19.0641C18.3784 32.1216 18.0356 32.1216 17.7782 31.9349C17.521 31.7483 17.4145 31.4223 17.2017 30.7705L16.1248 27.4726C15.912 26.8208 15.8055 26.4949 15.5483 26.3082C15.2909 26.1216 14.9481 26.1216 14.2624 26.1216H7.84692" stroke="#222222" stroke-width="0.979592"/>
<path d="M19.6021 20.1216L24.5 25.1216M24.5 25.1216L29.398 20.1216M24.5 25.1216V11.1216" stroke="#DEDEDE" stroke-width="0.979592"/>
<path d="M13.7245 18.1216L9.08086 21.2818C8.62949 21.589 8.4038 21.7426 8.24053 21.944C8.09598 22.1223 7.98762 22.3271 7.92155 22.5469C7.84692 22.7952 7.84692 23.0682 7.84692 23.6142V35.3004C7.84692 36.2879 7.84692 36.7816 8.03911 37.1589C8.20816 37.4907 8.47791 37.7603 8.80969 37.9294C9.18687 38.1216 9.68062 38.1216 10.6681 38.1216H38.3318C39.3193 38.1216 39.8131 38.1216 40.1903 37.9294C40.5221 37.7603 40.7918 37.4907 40.9608 37.1589C41.153 36.7816 41.153 36.2879 41.153 35.3004V23.6142C41.153 23.0682 41.153 22.7952 41.0784 22.5469C41.0124 22.3271 40.904 22.1223 40.7594 21.944C40.5962 21.7426 40.3704 21.589 39.9192 21.2818L35.2755 18.1216" stroke="#DEDEDE" stroke-width="0.979592" stroke-linecap="round"/>
</svg>
