<svg width="45" height="41" viewBox="0 0 45 41" fill="none" xmlns="http://www.w3.org/2000/svg">
<path d="M0.75 9C0.75 4.44365 4.44365 0.75 9 0.75H36C40.5563 0.75 44.25 4.44365 44.25 9V32C44.25 36.5563 40.5563 40.25 36 40.25H9C4.44365 40.25 0.75 36.5563 0.75 32V9Z" stroke="#484E53" stroke-width="1.5"/>
<path fill-rule="evenodd" clip-rule="evenodd" d="M16.1733 13.8889C16.1733 13.398 16.578 13 17.0771 13H31.538C32.0372 13 32.4418 13.398 32.4418 13.8889C32.4418 14.3798 32.0372 14.7778 31.538 14.7778H17.0771C16.578 14.7778 16.1733 14.3798 16.1733 13.8889ZM12.5581 17.4444C12.5581 16.9535 12.9628 16.5556 13.4619 16.5556H31.538C32.0372 16.5556 32.4418 16.9535 32.4418 17.4444C32.4418 17.9354 32.0372 18.3333 31.538 18.3333H13.4619C12.9628 18.3333 12.5581 17.9354 12.5581 17.4444ZM12.5581 21C12.5581 20.5091 12.9628 20.1111 13.4619 20.1111H31.538C32.0372 20.1111 32.4418 20.5091 32.4418 21C32.4418 21.4909 32.0372 21.8889 31.538 21.8889H13.4619C12.9628 21.8889 12.5581 21.4909 12.5581 21ZM12.5581 24.5556C12.5581 24.0646 12.9628 23.6667 13.4619 23.6667H31.538C32.0372 23.6667 32.4418 24.0646 32.4418 24.5556C32.4418 25.0465 32.0372 25.4444 31.538 25.4444H13.4619C12.9628 25.4444 12.5581 25.0465 12.5581 24.5556ZM12.5581 28.1111C12.5581 27.6202 12.9628 27.2222 13.4619 27.2222H20.6924C21.1915 27.2222 21.5962 27.6202 21.5962 28.1111C21.5962 28.602 21.1915 29 20.6924 29H13.4619C12.9628 29 12.5581 28.602 12.5581 28.1111Z" fill="#A9A9A9"/>
</svg>
