<svg width="45" height="41" viewBox="0 0 45 41" fill="none" xmlns="http://www.w3.org/2000/svg">
<path d="M0.75 9C0.75 4.44365 4.44365 0.75 9 0.75H36C40.5563 0.75 44.25 4.44365 44.25 9V32C44.25 36.5563 40.5563 40.25 36 40.25H9C4.44365 40.25 0.75 36.5563 0.75 32V9Z" stroke="#484E53" stroke-width="1.5"/>
<path d="M36.2194 30.999V31.5772C36.2194 31.8138 35.9786 31.9978 35.7076 31.9978H10.3596C10.0887 32.0241 9.87793 31.8138 9.87793 31.5772V9.44681C9.87793 9.21027 10.0887 9 10.3596 9H11.0219C11.2928 9 11.5036 9.21027 11.5036 9.44681V30.1579C11.5036 30.3945 11.7143 30.5785 11.9852 30.5785H35.7076C35.9786 30.5785 36.2194 30.7625 36.2194 30.999ZM22.1004 17.0952L27.9105 18.3568C28.1514 18.4094 28.4825 18.3042 28.6331 18.094L30.4393 15.4394C30.5898 15.2291 30.8909 15.1765 31.1016 15.2817L32.3961 15.965C32.6068 16.0965 32.8176 15.9913 32.8176 15.7548L32.9079 10.8661C32.9079 10.6296 32.7273 10.5507 32.4864 10.6558L27.6095 13.0213C27.3687 13.1265 27.3687 13.3367 27.5794 13.4419L28.8739 14.1252C29.0846 14.2304 29.1749 14.4932 29.0244 14.7034L27.8202 16.4381C27.6998 16.6484 27.3687 16.7535 27.0977 16.701L21.6187 15.4919C21.3478 15.4394 20.9865 15.5445 20.8059 15.7022L14.5742 21.1428C14.3635 21.3005 14.3635 21.5634 14.5742 21.7473L15.0258 22.1679C15.2365 22.3256 15.5376 22.3256 15.7182 22.1679L21.2875 17.2792C21.4983 17.1215 21.8595 17.0426 22.1004 17.0952ZM20.2339 29.1329H22.5519C22.8229 29.1329 23.0336 28.9489 23.0336 28.7124V19.1979C23.0336 18.9613 22.8229 18.7248 22.582 18.6722C22.3412 18.6196 21.9799 18.7248 21.7993 18.8825L20.0834 20.3806C19.9027 20.5383 19.7522 20.88 19.7522 21.1165V28.7124C19.7522 28.9489 19.9629 29.1329 20.2339 29.1329ZM14.8151 24.4019V28.7124C14.8151 28.9489 15.0258 29.1329 15.2967 29.1329H17.6148C17.8857 29.1329 18.0965 28.9489 18.0965 28.7124V22.5358C18.0965 22.2993 17.9459 22.2467 17.7653 22.4307L15.7182 24.1917C15.5376 24.3494 14.8151 24.1654 14.8151 24.4019ZM29.6265 19.8549V28.7124C29.6265 28.9489 29.8372 29.1329 30.1082 29.1329H32.4262C32.6972 29.1329 32.9079 28.9489 32.9079 28.7124V18.3305C32.9079 18.094 32.7273 17.8049 32.4864 17.6997L31.6736 17.2792C31.4328 17.1478 31.1317 17.2003 31.0113 17.4106L29.8673 19.0665C29.7168 19.2767 29.6265 19.6184 29.6265 19.8549ZM27.9708 28.7124V20.2755C27.9708 20.0389 27.76 19.8024 27.4891 19.7498L25.1409 19.2504C24.9001 19.1979 24.6894 19.3293 24.6894 19.5658V28.7124C24.6894 28.9489 24.9001 29.1329 25.171 29.1329H27.4891C27.76 29.1329 27.9708 28.9489 27.9708 28.7124Z" fill="#A9A9A9"/>
</svg>
