<svg width="35" height="35" viewBox="0 0 35 35" fill="none" xmlns="http://www.w3.org/2000/svg">
<path d="M34.6089 0H0.391061C0.287345 0 0.187878 0.0478896 0.114539 0.133133C0.0412011 0.218377 0 0.333993 0 0.454545V34.5455C0 34.666 0.0412011 34.7816 0.114539 34.8669C0.187878 34.9521 0.287345 35 0.391061 35H34.6089C34.7127 35 34.8121 34.9521 34.8855 34.8669C34.9588 34.7816 35 34.666 35 34.5455V0.454545C35 0.333993 34.9588 0.218377 34.8855 0.133133C34.8121 0.0478896 34.7127 0 34.6089 0ZM0.782123 0.909091H5.70168V6.81818H0.782123V0.909091ZM34.2179 34.0909H0.782123V7.72727H34.2179V34.0909ZM34.2179 6.81818H6.4838V0.909091H34.2179V6.81818Z" fill="#A9A9A9"/>
<path d="M21.0774 21.9C21.3561 21.9028 21.6334 21.8537 21.8987 21.7546C22.1819 21.6523 22.4449 21.4856 22.6723 21.2643C22.8997 21.043 23.087 20.7714 23.2234 20.4652C23.3598 20.1591 23.4426 19.8246 23.4669 19.481C23.4913 19.1374 23.4567 18.7916 23.3651 18.4637L25.3674 9.77276C25.3928 9.6583 25.3788 9.53685 25.3284 9.43417C25.278 9.33149 25.1952 9.25566 25.0975 9.22276L23.9557 8.86367C23.8577 8.83091 23.7525 8.84394 23.6627 8.89998C23.5728 8.95602 23.5053 9.05064 23.4746 9.16367L21.1948 17.5C20.766 17.6543 20.3959 17.9753 20.1467 18.4091C19.7087 19.0046 19.4037 19.3546 18.9422 19.2C18.8746 19.1785 18.8033 19.1784 18.7356 19.1999C18.668 19.2214 18.6066 19.2636 18.5578 19.3222C18.509 19.3807 18.4747 19.4534 18.4584 19.5327C18.4421 19.612 18.4444 19.6949 18.4651 19.7728C18.6547 20.4002 19.0087 20.9428 19.4772 21.3243C19.9457 21.7059 20.5054 21.9072 21.0774 21.9ZM24.1043 9.85003L24.4953 9.98639L22.7003 17.8864L21.9691 17.6409L24.1043 9.85003ZM20.7411 18.9682C21.0188 18.5955 21.23 18.3364 21.3668 18.3818L22.6417 18.8364C22.746 19.2631 22.7015 19.7204 22.5178 20.1092C22.334 20.4981 22.0259 20.7871 21.6601 20.9137C21.2691 21.0606 20.8482 21.0607 20.4572 20.9138C20.0662 20.7669 19.725 20.4806 19.4819 20.0955C19.9943 19.8853 20.4354 19.4903 20.7411 18.9682ZM27.5925 20.2273L30.721 15.1637C30.7691 15.0862 30.7949 14.9932 30.7949 14.8978C30.7949 14.8023 30.7691 14.7093 30.721 14.6318L27.5925 9.56367L26.959 10.0955L29.9272 14.8955L26.959 19.7046L27.5925 20.2273ZM17.1825 20.6137L17.816 20.0818L14.6132 14.9L17.816 9.72276L17.1825 9.19094L13.8154 14.6455C13.7674 14.7229 13.7415 14.8159 13.7415 14.9114C13.7415 15.0069 13.7674 15.0999 13.8154 15.1773L17.1825 20.6137ZM13.835 25.7682H32.3126C32.4163 25.7682 32.5158 25.7203 32.5892 25.6351C32.6625 25.5498 32.7037 25.4342 32.7037 25.3137V23.1818C32.7037 23.0613 32.6625 22.9457 32.5892 22.8604C32.5158 22.7752 32.4163 22.7273 32.3126 22.7273H13.835C13.7313 22.7273 13.6318 22.7752 13.5585 22.8604C13.4851 22.9457 13.4439 23.0613 13.4439 23.1818V25.3137C13.4439 25.4342 13.4851 25.5498 13.5585 25.6351C13.6318 25.7203 13.7313 25.7682 13.835 25.7682ZM14.226 23.6364H31.9216V24.8591H14.226V23.6364ZM13.835 30.7409H28.7892C28.8929 30.7409 28.9924 30.693 29.0657 30.6078C29.139 30.5226 29.1802 30.4069 29.1802 30.2864V28.1546C29.1802 28.034 29.139 27.9184 29.0657 27.8332C28.9924 27.7479 28.8929 27.7 28.7892 27.7H13.835C13.7313 27.7 13.6318 27.7479 13.5585 27.8332C13.4851 27.9184 13.4439 28.034 13.4439 28.1546V30.2864C13.4439 30.4069 13.4851 30.5226 13.5585 30.6078C13.6318 30.693 13.7313 30.7409 13.835 30.7409ZM14.226 28.6091H28.3981V29.8318H14.226V28.6091ZM2.44336 10.4V20.3409C2.44336 20.4615 2.48456 20.5771 2.5579 20.6624C2.63124 20.7476 2.7307 20.7955 2.83442 20.7955H11.3908C11.4946 20.7955 11.594 20.7476 11.6674 20.6624C11.7407 20.5771 11.7819 20.4615 11.7819 20.3409V10.4C11.7819 10.2795 11.7407 10.1639 11.6674 10.0786C11.594 9.99337 11.4946 9.94548 11.3908 9.94548H2.83442C2.7307 9.94548 2.63124 9.99337 2.5579 10.0786C2.48456 10.1639 2.44336 10.2795 2.44336 10.4ZM3.22548 10.8546H10.9998V19.8864H3.22548V10.8546ZM11.3908 22.7273H2.83442C2.7307 22.7273 2.63124 22.7752 2.5579 22.8604C2.48456 22.9457 2.44336 23.0613 2.44336 23.1818V31.7046C2.44336 31.8251 2.48456 31.9407 2.5579 32.026C2.63124 32.1112 2.7307 32.1591 2.83442 32.1591H11.3908C11.4946 32.1591 11.594 32.1112 11.6674 32.026C11.7407 31.9407 11.7819 31.8251 11.7819 31.7046V23.1818C11.7819 23.0613 11.7407 22.9457 11.6674 22.8604C11.594 22.7752 11.4946 22.7273 11.3908 22.7273ZM10.3311 23.6364L7.11263 26.8455L3.89029 23.6364H10.3311ZM3.22548 24.1682L6.5104 27.4455L3.22548 30.7182V24.1682ZM3.89029 31.25L7.11263 28.0409L10.3311 31.25H3.89029ZM10.9998 30.7182L7.72269 27.4455L11.0115 24.1682L10.9998 30.7182ZM12.826 5.28185C12.8322 5.31823 12.8427 5.35342 12.8573 5.38639C12.874 5.41327 12.8971 5.43383 12.9238 5.44548C12.9643 5.46103 13.0064 5.4702 13.0489 5.47276H13.4635C13.5061 5.47067 13.5482 5.46149 13.5886 5.44548C13.6144 5.43184 13.6361 5.40972 13.6512 5.38185C13.6676 5.35145 13.6782 5.31737 13.6825 5.28185L14.1322 3.10003L14.6093 5.28185C14.6137 5.31876 14.6243 5.35429 14.6406 5.38639C14.6554 5.41522 14.6792 5.43636 14.707 5.44548C14.7474 5.46149 14.7896 5.47067 14.8322 5.47276H15.2232C15.2646 5.4703 15.3054 5.46112 15.3445 5.44548C15.3744 5.43643 15.4007 5.41553 15.4188 5.38639C15.4365 5.3547 15.4485 5.31912 15.454 5.28185L16.1344 2.28639C16.147 2.23424 16.1561 2.18106 16.1618 2.1273C16.163 2.0962 16.1547 2.0656 16.1383 2.04094C16.1153 2.01835 16.0863 2.00553 16.0562 2.00457H15.7316C15.7003 2.00635 15.6697 2.01564 15.6417 2.03185C15.6321 2.03543 15.6234 2.04133 15.6159 2.04917C15.6085 2.05701 15.6026 2.0666 15.5987 2.0773C15.5964 2.10147 15.5964 2.12586 15.5987 2.15003L15.0746 4.77276L14.5154 2.15457C14.51 2.12438 14.5008 2.09528 14.4881 2.06821C14.4769 2.04488 14.4588 2.02709 14.4372 2.01821C14.4055 2.00622 14.3727 1.99859 14.3394 1.99548H13.9797C13.9459 1.99748 13.9128 2.00673 13.8819 2.02276C13.8607 2.03013 13.8426 2.04631 13.8311 2.06821C13.818 2.09472 13.81 2.12417 13.8076 2.15457L13.2797 4.77276L12.7596 2.13639C12.757 2.10804 12.7504 2.08038 12.74 2.05457C12.7305 2.03528 12.7152 2.02072 12.697 2.01367C12.6659 2.00781 12.6342 2.00781 12.6031 2.01367H12.2473C12.2136 2.01511 12.1811 2.02773 12.1534 2.05003C12.1437 2.06104 12.1364 2.0747 12.1323 2.08977C12.1282 2.10484 12.1274 2.12086 12.13 2.13639C12.1259 2.18628 12.1259 2.2365 12.13 2.28639L12.826 5.28185ZM18.6059 5.28185C18.615 5.31785 18.6267 5.35284 18.6411 5.38639C18.657 5.41413 18.6804 5.43492 18.7076 5.44548C18.7481 5.46103 18.7902 5.4702 18.8327 5.47276H19.2473C19.2886 5.47075 19.3295 5.46156 19.3685 5.44548C19.396 5.43314 19.4193 5.41082 19.435 5.38185C19.4514 5.35145 19.462 5.31737 19.4663 5.28185L19.916 3.10003L20.3931 5.28185C20.3956 5.31924 20.4064 5.35525 20.4244 5.38639C20.4392 5.41522 20.463 5.43636 20.4908 5.44548C20.5312 5.46149 20.5734 5.47067 20.616 5.47276H21.007C21.0496 5.4702 21.0917 5.46103 21.1322 5.44548C21.1611 5.434 21.1868 5.41357 21.2065 5.38639C21.2242 5.3547 21.2362 5.31912 21.2417 5.28185L21.9221 2.28639C21.9357 2.23472 21.9436 2.18127 21.9456 2.1273C21.9507 2.11366 21.9533 2.09897 21.9533 2.08412C21.9533 2.06927 21.9507 2.05458 21.9456 2.04094C21.9226 2.01835 21.8936 2.00553 21.8635 2.00457H21.5389C21.5076 2.00635 21.477 2.01564 21.4489 2.03185C21.4394 2.03543 21.4306 2.04133 21.4232 2.04917C21.4158 2.05701 21.4099 2.0666 21.4059 2.0773C21.4037 2.10147 21.4037 2.12586 21.4059 2.15003L20.8584 4.77276L20.2992 2.15457C20.2938 2.12438 20.2846 2.09528 20.2719 2.06821C20.2617 2.05776 20.2497 2.05001 20.2367 2.04548C20.2036 2.03357 20.1695 2.02595 20.135 2.02276H19.7948C19.7611 2.02533 19.728 2.03455 19.697 2.05003C19.6869 2.05356 19.6776 2.0594 19.6696 2.06721C19.6615 2.07502 19.6549 2.08464 19.6501 2.09548C19.6373 2.12255 19.6281 2.15165 19.6227 2.18185L19.0635 4.77276L18.5434 2.13639C18.5389 2.1085 18.5324 2.08113 18.5238 2.05457C18.5143 2.03528 18.499 2.02072 18.4808 2.01367C18.4484 2.00739 18.4154 2.00739 18.383 2.01367H18.0311C17.9974 2.01511 17.9649 2.02773 17.9372 2.05003C17.9277 2.06141 17.9204 2.07497 17.9157 2.08984C17.911 2.10472 17.909 2.12057 17.9098 2.13639C17.9098 2.17276 17.9177 2.22276 17.9333 2.28639L18.6059 5.28185ZM24.3897 5.28185C24.3987 5.31785 24.4105 5.35284 24.4249 5.38639C24.4408 5.41413 24.4642 5.43492 24.4914 5.44548C24.5318 5.46149 24.5739 5.47067 24.6165 5.47276H25.0311C25.0724 5.4703 25.1132 5.46112 25.1523 5.44548C25.1791 5.43192 25.2022 5.40987 25.2188 5.38185C25.2334 5.3505 25.244 5.3168 25.2501 5.28185L25.7115 3.10003L26.1847 5.28185C26.1909 5.31823 26.2014 5.35342 26.216 5.38639C26.2327 5.41327 26.2558 5.43383 26.2825 5.44548C26.3229 5.46103 26.365 5.4702 26.4076 5.47276H26.7987C26.8412 5.4702 26.8833 5.46103 26.9238 5.44548C26.9522 5.43519 26.9769 5.41445 26.9942 5.38639C27.0133 5.35507 27.0266 5.31947 27.0333 5.28185L27.7138 2.28639C27.7273 2.23472 27.7352 2.18127 27.7372 2.1273C27.7423 2.11366 27.7449 2.09897 27.7449 2.08412C27.7449 2.06927 27.7423 2.05458 27.7372 2.04094C27.7134 2.01994 27.6849 2.00732 27.6551 2.00457H27.3149C27.2824 2.00712 27.2507 2.01635 27.221 2.03185C27.2026 2.04074 27.1874 2.05681 27.178 2.0773C27.1758 2.10147 27.1758 2.12586 27.178 2.15003L26.6422 4.77276L26.0869 2.15457C26.0815 2.12438 26.0723 2.09528 26.0596 2.06821C26.0475 2.04581 26.0297 2.02834 26.0087 2.01821C25.9757 2.0063 25.9416 1.99868 25.907 1.99548H25.5668C25.5331 1.99805 25.5001 2.00728 25.4691 2.02276C25.4485 2.03141 25.4307 2.0473 25.4182 2.06821C25.4087 2.09634 25.4009 2.12519 25.3948 2.15457L24.8473 4.77276L24.3272 2.13639C24.3307 2.10928 24.3307 2.08169 24.3272 2.05457C24.3221 2.04441 24.3154 2.03554 24.3073 2.02851C24.2992 2.02148 24.29 2.01643 24.2802 2.01367C24.2492 2.00689 24.2174 2.00689 24.1864 2.01367H23.8344C23.8008 2.01511 23.7682 2.02773 23.7406 2.05003C23.7311 2.06141 23.7237 2.07497 23.719 2.08984C23.7143 2.10472 23.7123 2.12057 23.7132 2.13639C23.7174 2.18707 23.7252 2.23724 23.7367 2.28639L24.3897 5.28185Z" fill="#A9A9A9"/>
</svg>
