<svg width="32" height="32" viewBox="0 0 32 32" fill="none" xmlns="http://www.w3.org/2000/svg">
<path d="M15.9997 0C7.17756 0 0 7.17757 0 16C0 24.8227 7.17756 32 15.9997 32C24.8222 32 32 24.8227 32 16C31.9997 7.17757 24.8219 0 15.9997 0ZM15.9997 30.4219C8.0476 30.4219 1.57806 23.9524 1.57806 16C1.57806 8.04787 8.0476 1.57806 15.9997 1.57806C23.9519 1.57806 30.4219 8.04787 30.4219 16C30.4217 23.9524 23.9519 30.4219 15.9997 30.4219Z" fill="#484E53"/>
<path d="M16.2261 8V9.39713H14.6649V9.76497H16.2261V11.1621H16.7771V9.76497H18.3367V9.39713H16.7771V8H16.5016H16.2261ZM20.9998 9.43455L20.9982 10.4639V11.4932H18.6573V12.0811H20.9982V14.1029H21.824L21.8327 13.0996L21.8485 12.1001L23.0083 12.0874L24.1641 12.0811V11.4932H21.8263V9.43455H21.4131H20.9998ZM11.1776 9.4726V11.4957H8.81371V12.0823H11.1776V14.1054H11.9574V12.0817H14.3427V11.4951H11.9574V9.4726H11.5679H11.1776ZM15.9957 12.8148V15.0935H13.3808V15.8469H15.9965V18.1275H17.0098V15.8469H19.6295V15.0935H17.009V12.8148H16.5047H15.9957ZM23.6915 13.7978V15.2064H22.0987V15.7207H23.6915V17.1546H24.3937V15.7207H26V15.2064H24.3937V13.7985H24.0596L23.6915 13.7978ZM8.56196 13.8809V15.2596H7V15.6535H8.56196V17.0449H9.09V15.6535H10.6733V15.2603H9.06546V13.8803H8.81371L8.56196 13.8809ZM20.9982 16.7449V18.8086H18.6106V19.3965H20.9982V21.4367H21.8469V19.3971H24.2108V18.8086H21.8469V16.7449H21.425H20.9982ZM11.1317 16.75V18.8086H8.79075V19.3971H11.1317V21.4196H12.0033V19.3971H14.3427V18.8086H12.0033V16.7494H11.5679L11.1317 16.75ZM16.1319 19.6533L16.1335 20.3529V21.0505H14.5731V21.5654H16.1335V23H16.8681L16.8776 22.2903L16.8911 21.5654H18.4499V21.0505H16.8665V19.6533H16.4984H16.1319Z" fill="#A9A9A9"/>
</svg>
