<svg width="35" height="35" viewBox="0 0 35 35" fill="none" xmlns="http://www.w3.org/2000/svg">
<path d="M0 32.4597C0 33.8602 1.10414 35 2.46094 35H32.5391C33.8959 35 35 33.8602 35 32.4597V2.54032C35 1.13976 33.8959 0 32.5391 0H2.46094C1.80848 0.000747096 1.18295 0.268627 0.721591 0.744869C0.260233 1.22111 0.000723749 1.86682 0 2.54032V32.4597ZM34.4531 32.4597C34.4531 33.5492 33.5945 34.4355 32.5391 34.4355H2.46094C1.40547 34.4355 0.546875 33.5492 0.546875 32.4597V5.64516H34.4531V32.4597ZM0.546875 2.54032C0.546875 1.45081 1.40547 0.564516 2.46094 0.564516H32.5391C33.5945 0.564516 34.4531 1.45081 34.4531 2.54032V5.08065H0.546875V2.54032Z" fill="#A9A9A9"/>
<path d="M20.7839 2.55624H3.87488C3.8021 2.55624 3.73231 2.58574 3.68085 2.63825C3.62939 2.69076 3.60049 2.76197 3.60049 2.83623C3.60049 2.91049 3.62939 2.9817 3.68085 3.03421C3.73231 3.08672 3.8021 3.11622 3.87488 3.11622H20.7839C20.8567 3.11622 20.9265 3.08672 20.9779 3.03421C21.0294 2.9817 21.0583 2.91049 21.0583 2.83623C21.0583 2.76197 21.0294 2.69076 20.9779 2.63825C20.9265 2.58574 20.8567 2.55624 20.7839 2.55624ZM24.4893 1.74988C23.9021 1.74988 23.4246 2.23706 23.4246 2.83623C23.4246 3.4354 23.9021 3.92258 24.4893 3.92258C25.0765 3.92258 25.5545 3.4354 25.5545 2.83623C25.5545 2.23706 25.0765 1.74988 24.4893 1.74988ZM24.4893 3.3626C24.3566 3.35636 24.2313 3.29817 24.1396 3.20014C24.0479 3.10211 23.9967 2.97178 23.9967 2.83623C23.9967 2.70068 24.0479 2.57035 24.1396 2.47232C24.2313 2.37429 24.3566 2.3161 24.4893 2.30985C24.7691 2.30985 25.0051 2.55064 25.0051 2.83623C25.0051 3.12629 24.7741 3.3626 24.4893 3.3626ZM27.8385 1.74988C27.2513 1.74988 26.7738 2.23706 26.7738 2.83623C26.7738 3.4354 27.2513 3.92258 27.8385 3.92258C28.4257 3.92258 28.9031 3.4354 28.9031 2.83623C28.9031 2.23706 28.4257 1.74988 27.8385 1.74988ZM27.8385 3.3626C27.7058 3.35636 27.5805 3.29817 27.4888 3.20014C27.3971 3.10211 27.3459 2.97178 27.3459 2.83623C27.3459 2.70068 27.3971 2.57035 27.4888 2.47232C27.5805 2.37429 27.7058 2.3161 27.8385 2.30985C28.1184 2.30985 28.3543 2.55064 28.3543 2.83623C28.3543 3.12629 28.1233 3.3626 27.8385 3.3626ZM31.1882 1.74988C30.601 1.74988 30.1236 2.23706 30.1236 2.83623C30.1236 3.4354 30.601 3.92258 31.1882 3.92258C31.7754 3.92258 32.2529 3.4354 32.2529 2.83623C32.2529 2.23706 31.7754 1.74988 31.1882 1.74988ZM31.1882 3.3626C31.0555 3.35636 30.9303 3.29817 30.8386 3.20014C30.7468 3.10211 30.6956 2.97178 30.6956 2.83623C30.6956 2.70068 30.7468 2.57035 30.8386 2.47232C30.9303 2.37429 31.0555 2.3161 31.1882 2.30985C31.4676 2.30985 31.7041 2.55064 31.7041 2.83623C31.7041 3.12629 31.4725 3.3626 31.1882 3.3626ZM2.83494 12.2852H11.3575C11.4303 12.2852 11.5001 12.2557 11.5515 12.2032C11.603 12.1507 11.6319 12.0795 11.6319 12.0052C11.5254 7.93088 11.8651 7.31546 11.3575 7.31546H2.83494C2.76216 7.31546 2.69237 7.34496 2.64091 7.39747C2.58946 7.44998 2.56055 7.52119 2.56055 7.59545V12.0052C2.56055 12.0795 2.58946 12.1507 2.64091 12.2032C2.69237 12.2557 2.76216 12.2852 2.83494 12.2852ZM3.10933 7.876H11.0831V11.7258H3.10933V7.876ZM11.3575 13.6857H5.57884C5.50607 13.6857 5.43627 13.7152 5.38482 13.7677C5.33336 13.8202 5.30445 13.8915 5.30445 13.9657C5.30445 14.04 5.33336 14.1112 5.38482 14.1637C5.43627 14.2162 5.50607 14.2457 5.57884 14.2457H11.3575C11.4303 14.2457 11.5001 14.2162 11.5515 14.1637C11.603 14.1112 11.6319 14.04 11.6319 13.9657C11.6319 13.8915 11.603 13.8202 11.5515 13.7677C11.5001 13.7152 11.4303 13.6857 11.3575 13.6857ZM2.83494 16.2056H11.3575C11.4303 16.2056 11.5001 16.1761 11.5515 16.1236C11.603 16.0711 11.6319 15.9999 11.6319 15.9256C11.6319 15.8514 11.603 15.7802 11.5515 15.7276C11.5001 15.6751 11.4303 15.6456 11.3575 15.6456H2.83494C2.76216 15.6456 2.69237 15.6751 2.64091 15.7276C2.58946 15.7802 2.56055 15.8514 2.56055 15.9256C2.56055 15.9999 2.58946 16.0711 2.64091 16.1236C2.69237 16.1761 2.76216 16.2056 2.83494 16.2056ZM2.83494 18.1655H8.72829C8.80106 18.1655 8.87086 18.136 8.92231 18.0835C8.97377 18.031 9.00268 17.9598 9.00268 17.8855C9.00268 17.8113 8.97377 17.7401 8.92231 17.6876C8.87086 17.6351 8.80106 17.6056 8.72829 17.6056H2.83494C2.76216 17.6056 2.69237 17.6351 2.64091 17.6876C2.58946 17.7401 2.56055 17.8113 2.56055 17.8855C2.56055 17.9598 2.58946 18.031 2.64091 18.0835C2.69237 18.136 2.76216 18.1655 2.83494 18.1655ZM22.1877 13.6857H16.409C16.3363 13.6857 16.2665 13.7152 16.215 13.7677C16.1635 13.8202 16.1346 13.8915 16.1346 13.9657C16.1346 14.04 16.1635 14.1112 16.215 14.1637C16.2665 14.2162 16.3363 14.2457 16.409 14.2457H22.1877C22.2605 14.2457 22.3302 14.2162 22.3817 14.1637C22.4332 14.1112 22.4621 14.04 22.4621 13.9657C22.4621 13.8915 22.4332 13.8202 22.3817 13.7677C22.3302 13.7152 22.2605 13.6857 22.1877 13.6857ZM13.6651 16.2056H22.1877C22.2605 16.2056 22.3302 16.1761 22.3817 16.1236C22.4332 16.0711 22.4621 15.9999 22.4621 15.9256C22.4621 15.8514 22.4332 15.7802 22.3817 15.7276C22.3302 15.6751 22.2605 15.6456 22.1877 15.6456H13.6651C13.5923 15.6456 13.5226 15.6751 13.4711 15.7276C13.4196 15.7802 13.3907 15.8514 13.3907 15.9256C13.3907 15.9999 13.4196 16.0711 13.4711 16.1236C13.5226 16.1761 13.5923 16.2056 13.6651 16.2056ZM13.6651 18.1655H19.5585C19.6312 18.1655 19.701 18.136 19.7525 18.0835C19.804 18.031 19.8329 17.9598 19.8329 17.8855C19.8329 17.8113 19.804 17.7401 19.7525 17.6876C19.701 17.6351 19.6312 17.6056 19.5585 17.6056H13.6651C13.5923 17.6056 13.5226 17.6351 13.4711 17.6876C13.4196 17.7401 13.3907 17.8113 13.3907 17.8855C13.3907 17.9598 13.4196 18.031 13.4711 18.0835C13.5226 18.136 13.5923 18.1655 13.6651 18.1655ZM33.0179 13.6857H27.2392C27.1664 13.6857 27.0966 13.7152 27.0452 13.7677C26.9937 13.8202 26.9648 13.8915 26.9648 13.9657C26.9648 14.04 26.9937 14.1112 27.0452 14.1637C27.0966 14.2162 27.1664 14.2457 27.2392 14.2457H33.0179C33.0906 14.2457 33.1604 14.2162 33.2119 14.1637C33.2633 14.1112 33.2923 14.04 33.2923 13.9657C33.2923 13.8915 33.2633 13.8202 33.2119 13.7677C33.1604 13.7152 33.0906 13.6857 33.0179 13.6857ZM24.4953 16.2056H33.0179C33.0906 16.2056 33.1604 16.1761 33.2119 16.1236C33.2633 16.0711 33.2923 15.9999 33.2923 15.9256C33.2923 15.8514 33.2633 15.7802 33.2119 15.7276C33.1604 15.6751 33.0906 15.6456 33.0179 15.6456H24.4953C24.4225 15.6456 24.3527 15.6751 24.3013 15.7276C24.2498 15.7802 24.2209 15.8514 24.2209 15.9256C24.2209 15.9999 24.2498 16.0711 24.3013 16.1236C24.3527 16.1761 24.4225 16.2056 24.4953 16.2056ZM24.4953 18.1655H30.3892C30.462 18.1655 30.5318 18.136 30.5832 18.0835C30.6347 18.031 30.6636 17.9598 30.6636 17.8855C30.6636 17.8113 30.6347 17.7401 30.5832 17.6876C30.5318 17.6351 30.462 17.6056 30.3892 17.6056H24.4953C24.4225 17.6056 24.3527 17.6351 24.3013 17.6876C24.2498 17.7401 24.2209 17.8113 24.2209 17.8855C24.2209 17.9598 24.2498 18.031 24.3013 18.0835C24.3527 18.136 24.4225 18.1655 24.4953 18.1655ZM24.4953 12.2858H33.0179C33.0906 12.2858 33.1604 12.2563 33.2119 12.2038C33.2633 12.1513 33.2923 12.0801 33.2923 12.0058V7.59601C33.2923 7.52175 33.2633 7.45054 33.2119 7.39803C33.1604 7.34552 33.0906 7.31602 33.0179 7.31602H24.4953C24.4225 7.31602 24.3527 7.34552 24.3013 7.39803C24.2498 7.45054 24.2209 7.52175 24.2209 7.59601V12.0058C24.2209 12.0801 24.2498 12.1513 24.3013 12.2038C24.3527 12.2563 24.4225 12.2858 24.4953 12.2858ZM24.7697 7.876H32.7435V11.7258H24.7697V7.876ZM13.6651 12.2858H22.1877C22.2605 12.2858 22.3302 12.2563 22.3817 12.2038C22.4332 12.1513 22.4621 12.0801 22.4621 12.0058V7.59601C22.4621 7.52175 22.4332 7.45054 22.3817 7.39803C22.3302 7.34552 22.2605 7.31602 22.1877 7.31602H13.6651C13.5923 7.31602 13.5226 7.34552 13.4711 7.39803C13.4196 7.45054 13.3907 7.52175 13.3907 7.59601V12.0058C13.3907 12.0801 13.4196 12.1513 13.4711 12.2038C13.5226 12.2563 13.5923 12.2858 13.6651 12.2858ZM13.9395 7.876H21.9133V11.7258H13.9395V7.876ZM2.83494 24.5352H22.1877C22.2605 24.5352 22.3302 24.5057 22.3817 24.4532C22.4332 24.4007 22.4621 24.3295 22.4621 24.2552V19.8482C22.4621 19.774 22.4332 19.7028 22.3817 19.6503C22.3302 19.5978 22.2605 19.5683 22.1877 19.5683H2.83494C2.76216 19.5683 2.69237 19.5978 2.64091 19.6503C2.58946 19.7028 2.56055 19.774 2.56055 19.8482V24.2552C2.56055 24.3295 2.58946 24.4007 2.64091 24.4532C2.69237 24.5057 2.76216 24.5352 2.83494 24.5352ZM3.10933 20.1282H21.9133V23.9753H3.10933V20.1282ZM2.83494 26.4951H22.1877C22.2605 26.4951 22.3302 26.4656 22.3817 26.4131C22.4332 26.3606 22.4621 26.2894 22.4621 26.2152C22.4621 26.1409 22.4332 26.0697 22.3817 26.0172C22.3302 25.9647 22.2605 25.9352 22.1877 25.9352H2.83494C2.76216 25.9352 2.69237 25.9647 2.64091 26.0172C2.58946 26.0697 2.56055 26.1409 2.56055 26.2152C2.56055 26.2894 2.58946 26.3606 2.64091 26.4131C2.69237 26.4656 2.76216 26.4951 2.83494 26.4951ZM2.83494 28.4551H22.1877C22.2605 28.4551 22.3302 28.4256 22.3817 28.373C22.4332 28.3205 22.4621 28.2493 22.4621 28.1751C22.4621 28.1008 22.4332 28.0296 22.3817 27.9771C22.3302 27.9246 22.2605 27.8951 22.1877 27.8951H2.83494C2.76216 27.8951 2.69237 27.9246 2.64091 27.9771C2.58946 28.0296 2.56055 28.1008 2.56055 28.1751C2.56055 28.2493 2.58946 28.3205 2.64091 28.373C2.69237 28.4256 2.76216 28.4551 2.83494 28.4551ZM2.83494 30.415H19.4438C19.5166 30.415 19.5863 30.3855 19.6378 30.333C19.6893 30.2805 19.7182 30.2092 19.7182 30.135C19.7182 30.0607 19.6893 29.9895 19.6378 29.937C19.5863 29.8845 19.5166 29.855 19.4438 29.855H2.83494C2.76216 29.855 2.69237 29.8845 2.64091 29.937C2.58946 29.9895 2.56055 30.0607 2.56055 30.135C2.56055 30.2092 2.58946 30.2805 2.64091 30.333C2.69237 30.3855 2.76216 30.415 2.83494 30.415ZM2.83494 32.3749H19.4438C19.5166 32.3749 19.5863 32.3454 19.6378 32.2929C19.6893 32.2404 19.7182 32.1691 19.7182 32.0949C19.7182 32.0206 19.6893 31.9494 19.6378 31.8969C19.5863 31.8444 19.5166 31.8149 19.4438 31.8149H2.83494C2.76216 31.8149 2.69237 31.8444 2.64091 31.8969C2.58946 31.9494 2.56055 32.0206 2.56055 32.0949C2.56055 32.1691 2.58946 32.2404 2.64091 32.2929C2.69237 32.3454 2.76216 32.3749 2.83494 32.3749ZM24.4953 32.3749H33.0179C33.0906 32.3749 33.1604 32.3454 33.2119 32.2929C33.2633 32.2404 33.2923 32.1691 33.2923 32.0949V19.8482C33.2923 19.774 33.2633 19.7028 33.2119 19.6503C33.1604 19.5978 33.0906 19.5683 33.0179 19.5683H24.4953C24.4225 19.5683 24.3527 19.5978 24.3013 19.6503C24.2498 19.7028 24.2209 19.774 24.2209 19.8482V32.0949C24.2209 32.1691 24.2498 32.2404 24.3013 32.2929C24.3527 32.3454 24.4225 32.3749 24.4953 32.3749ZM24.7697 20.1282H32.7435V31.8149H24.7697V20.1282Z" fill="#A9A9A9"/>
</svg>
