<svg width="32" height="32" viewBox="0 0 32 32" fill="none" xmlns="http://www.w3.org/2000/svg">
<path d="M15.9997 0C7.17757 0 0 7.17757 0 16C0 24.8224 7.17757 32 15.9997 32C24.8222 32 32 24.8224 32 16C32 7.17757 24.8219 0 15.9997 0ZM15.9997 30.4219C8.0476 30.4219 1.57806 23.9521 1.57806 16C1.57806 8.04787 8.0476 1.57806 15.9997 1.57806C23.9519 1.57806 30.4219 8.04787 30.4219 16C30.4219 23.9521 23.9519 30.4219 15.9997 30.4219Z" fill="#484E53"/>
<path d="M15.9326 7.05786C11.0017 7.05786 6.99023 11.0693 6.99023 16C6.99023 20.9309 11.0017 24.9423 15.9326 24.9423C20.8635 24.9423 24.875 20.9309 24.875 16C24.875 11.0693 20.8635 7.05786 15.9326 7.05786ZM21.7701 11.5183C22.723 12.7539 23.2563 14.2617 23.2922 15.8216C21.4258 15.5318 19.7697 15.5736 18.3176 15.8316C18.0825 15.2811 17.8322 14.7371 17.5669 14.2004C19.0651 13.5647 20.5274 12.6992 21.7701 11.5183ZM20.6784 10.3755C19.5585 11.4375 18.2142 12.2168 16.8271 12.7886C15.7643 10.8694 14.7527 9.47046 14.2625 8.82898C14.8099 8.70093 15.3702 8.63616 15.9323 8.63593C17.7397 8.63593 19.3957 9.29135 20.6784 10.3755ZM12.9745 9.25795L12.7428 9.44889C12.7673 9.47861 13.9766 10.9696 15.3085 13.3333C12.5624 14.1823 9.91123 14.3322 8.75609 14.3525C9.28106 12.0669 10.871 10.1848 12.9745 9.25795ZM8.5683 16C8.5683 15.9781 8.56961 15.9566 8.56988 15.9347C9.73843 15.9329 12.8438 15.8153 16.0683 14.7607C16.3083 15.2393 16.5361 15.724 16.7514 16.2143C13.2233 17.3071 11.1482 19.6237 10.3123 20.751C9.22556 19.4678 8.5683 17.8095 8.5683 16ZM11.4583 21.8438C12.0435 20.9806 13.8906 18.659 17.3421 17.6604C17.9404 19.2539 18.427 20.9956 18.6587 22.8085L18.7729 22.7938C17.8736 23.1713 16.9079 23.3652 15.9326 23.3643C14.3142 23.3656 12.7408 22.8309 11.4583 21.8438ZM20.141 22.0376C19.8833 20.3762 19.4414 18.7895 18.9078 17.324C20.1539 17.1438 21.5687 17.1399 23.1617 17.3992C22.7924 19.311 21.6818 20.9606 20.141 22.0376Z" fill="#A9A9A9"/>
</svg>
