<svg width="32" height="32" viewBox="0 0 32 32" fill="none" xmlns="http://www.w3.org/2000/svg">
<path d="M15.9997 0C7.17757 0 0 7.17757 0 16C0 24.8227 7.17757 32 15.9997 32C24.8222 32 32 24.8227 32 16C31.9997 7.17757 24.8219 0 15.9997 0ZM15.9997 30.4219C8.0476 30.4219 1.57806 23.9524 1.57806 16C1.57806 8.04787 8.0476 1.57806 15.9997 1.57806C23.9519 1.57806 30.4219 8.04787 30.4219 16C30.4217 23.9524 23.9519 30.4219 15.9997 30.4219Z" fill="#484E53"/>
<path d="M20.9272 6.61109H17.4565C17.4486 6.61103 17.4407 6.61139 17.4329 6.61214C13.9288 6.62319 13.4711 9.06998 13.4693 11.2085C13.4644 11.2288 13.462 11.2495 13.4619 11.2703V12.7716H11.0638C10.994 12.7716 10.9271 12.7993 10.8778 12.8486C10.8285 12.898 10.8008 12.9648 10.8008 13.0346V16.737C10.8008 16.8068 10.8285 16.8737 10.8778 16.923C10.9271 16.9723 10.994 17 11.0638 17H13.4619V25.1247C13.4619 25.1944 13.4896 25.2613 13.539 25.3107C13.5883 25.36 13.6552 25.3877 13.7249 25.3877H17.2248C17.2946 25.3877 17.3615 25.36 17.4108 25.3107C17.4601 25.2613 17.4878 25.1944 17.4878 25.1247V17.0003H20.927C20.9967 17.0003 21.0636 16.9726 21.1129 16.9232C21.1623 16.8739 21.19 16.807 21.19 16.7373V13.0349C21.19 12.9651 21.1623 12.8982 21.1129 12.8489C21.0636 12.7996 20.9967 12.7719 20.927 12.7719H17.2248V10.7817H20.927C20.9967 10.7817 21.0636 10.7539 21.1129 10.7046C21.1623 10.6553 21.19 10.5884 21.19 10.5186V6.8741C21.19 6.83957 21.1832 6.80538 21.17 6.77347C21.1569 6.74156 21.1375 6.71257 21.1131 6.68814C21.0887 6.66371 21.0597 6.64434 21.0278 6.63111C20.9959 6.61789 20.9617 6.61109 20.9272 6.61109Z" fill="#A9A9A9"/>
</svg>
