<svg width="40" height="60" viewBox="0 0 40 60" fill="none" xmlns="http://www.w3.org/2000/svg">
<path d="M18.75 16.6666C18.75 17.3569 19.3096 17.9166 20 17.9166C20.6904 17.9166 21.25 17.3569 21.25 16.6666V11.6666C21.25 10.9762 20.6904 10.4166 20 10.4166C19.3096 10.4166 18.75 10.9762 18.75 11.6666V16.6666Z" fill="#A9A9A9"/>
<path fill-rule="evenodd" clip-rule="evenodd" d="M31.25 15.1238C31.25 9.58795 27.2227 4.87483 21.7546 4.01145C20.5921 3.82789 19.4079 3.82789 18.2454 4.01145C12.7773 4.87483 8.75 9.58795 8.75 15.1238V24.876C8.75 30.4118 12.7773 35.125 18.2454 35.9883C19.4079 36.1719 20.5921 36.1719 21.7546 35.9883C27.2227 35.125 31.25 30.4118 31.25 24.876L31.25 15.1238ZM21.3647 6.48085C25.6176 7.15237 28.75 10.8181 28.75 15.1238L28.75 24.876C28.75 29.1816 25.6176 32.8474 21.3647 33.5189C20.4605 33.6617 19.5395 33.6617 18.6353 33.5189C14.3824 32.8474 11.25 29.1816 11.25 24.876L11.25 15.1238C11.25 10.8181 14.3824 7.15237 18.6353 6.48085C19.5395 6.33809 20.4605 6.33809 21.3647 6.48085Z" fill="#A9A9A9"/>
<path d="M21.0624 46.6569L24.9153 42.0108C25.3302 41.5104 26.003 41.5104 26.4179 42.0108C26.8328 42.5111 26.8328 43.3224 26.4179 43.8227L20.7512 50.6561C20.3363 51.1564 19.6636 51.1564 19.2486 50.6561L13.582 43.8227C13.167 43.3224 13.167 42.5111 13.582 42.0108C13.9969 41.5104 14.6696 41.5104 15.0846 42.0108L18.9374 46.6569L18.9374 30.1042C18.9374 29.3966 19.4131 28.823 19.9999 28.823C20.5867 28.823 21.0624 29.3966 21.0624 30.1042L21.0624 46.6569Z" fill="#A9A9A9"/>
</svg>
