<svg width="32" height="32" viewBox="0 0 32 32" fill="none" xmlns="http://www.w3.org/2000/svg">
<path d="M15.9997 0C7.17757 0 0 7.17757 0 16C0 24.8227 7.17757 32 15.9997 32C24.8222 32 32 24.8227 32 16C31.9997 7.17757 24.8219 0 15.9997 0ZM15.9997 30.4219C8.0476 30.4219 1.57806 23.9524 1.57806 16C1.57806 8.04787 8.0476 1.57806 15.9997 1.57806C23.9519 1.57806 30.4219 8.04787 30.4219 16C30.4217 23.9524 23.9519 30.4219 15.9997 30.4219Z" fill="#484E53"/>
<path d="M23.1226 21.3089H21.2201V12.9909L15.5126 16.5557L9.80508 12.9909V21.3089H7.90257V9.90136H9.04407L15.5126 13.9415L21.9811 9.90136H23.1226M23.1226 8.00011H7.90257C6.84669 8.00011 6.00007 8.84616 6.00007 9.90136V21.3089C6.00007 21.8131 6.20051 22.2967 6.5573 22.6532C6.91409 23.0098 7.398 23.2101 7.90257 23.2101H23.1226C23.6272 23.2101 24.1111 23.0098 24.4679 22.6532C24.8246 22.2967 25.0251 21.8131 25.0251 21.3089V9.90136C25.0251 8.84616 24.169 8.00011 23.1226 8.00011Z" fill="#A9A9A9"/>
</svg>
