<svg width="37" height="38" viewBox="0 0 37 38" fill="none" xmlns="http://www.w3.org/2000/svg">
<path d="M9.25644 11.093C8.90888 10.8983 8.48851 10.908 8.14961 11.1186C7.81071 11.3292 7.60318 11.7097 7.60318 12.1205V26.9023C7.60318 27.5469 8.10531 28.0693 8.72472 28.0693C9.34413 28.0693 9.84626 27.5469 9.84626 26.9023V14.0743L17.913 18.5939C18.245 18.7799 18.6445 18.7799 18.9765 18.5939L27.0432 14.0743V26.9023C27.0432 27.5469 27.5454 28.0693 28.1648 28.0693C28.7842 28.0693 29.2863 27.5469 29.2863 26.9023V12.1205C29.2863 11.7097 29.0788 11.3292 28.7399 11.1186C28.401 10.908 27.9806 10.8983 27.6331 11.093L18.4447 16.241L9.25644 11.093Z" fill="#C9C9C9"/>
<path fill-rule="evenodd" clip-rule="evenodd" d="M26.3862 6.24172C21.1024 5.75015 15.7871 5.75015 10.5034 6.24172L8.23436 6.45282C5.80044 6.67926 3.8339 8.61401 3.4804 11.1299C2.7357 16.4301 2.7357 21.8148 3.4804 27.1149C3.8339 29.6308 5.80044 31.5656 8.23436 31.792L10.5034 32.0031C15.7871 32.4947 21.1024 32.4947 26.3862 32.0031L28.6552 31.792C31.0891 31.5656 33.0556 29.6308 33.4091 27.1149C34.1538 21.8148 34.1538 16.4301 33.4091 11.1299C33.0556 8.61401 31.0891 6.67926 28.6552 6.45282L26.3862 6.24172ZM10.7031 8.56643C15.8539 8.08722 21.0356 8.08722 26.1864 8.56643L28.4554 8.77752C29.8553 8.90776 30.9863 10.0205 31.1896 11.4675C31.9029 16.5438 31.9029 21.701 31.1896 26.7773C30.9863 28.2243 29.8553 29.3371 28.4554 29.4673L26.1864 29.6784C21.0356 30.1576 15.8539 30.1576 10.7031 29.6784L8.43412 29.4673C7.03426 29.3371 5.9032 28.2243 5.69989 26.7773C4.98665 21.701 4.98665 16.5438 5.69989 11.4675C5.9032 10.0205 7.03426 8.90776 8.43412 8.77752L10.7031 8.56643Z" fill="#C9C9C9"/>
</svg>
