<svg width="23" height="20" viewBox="0 0 23 20" fill="none" xmlns="http://www.w3.org/2000/svg">
<path fill-rule="evenodd" clip-rule="evenodd" d="M23 3.33333C23 1.81818 17.8513 0 11.5 0C5.14873 0 0 1.49238 0 3.33333V16.6667C0 18.5076 5.14873 20 11.5 20C17.8513 20 23 18.5076 23 16.6667V3.33333ZM2.55556 3.43793C2.58005 3.41608 2.61843 3.38523 2.67661 3.34536C2.94715 3.15996 3.47311 2.90921 4.33248 2.66012C6.03838 2.16565 8.57121 1.81818 11.5 1.81818C14.3582 1.81818 16.8821 2.23039 18.6125 2.76581C19.4858 3.03604 20.0542 3.30586 20.3596 3.50714C20.3932 3.52927 20.4212 3.54888 20.4444 3.56594V3.63636C20.4444 3.65958 20.4314 3.79052 20.0712 4.01771C19.7126 4.24395 19.1206 4.48922 18.2795 4.71363C16.6068 5.15992 14.2101 5.45455 11.5 5.45455C8.78987 5.45455 6.39323 5.15992 4.72046 4.71363C3.87935 4.48922 3.28745 4.24395 2.92878 4.01771C2.56862 3.79052 2.55556 3.65958 2.55556 3.63636V3.43793ZM19.1769 6.41605C19.6233 6.29693 20.0495 6.16346 20.4444 6.01472V9.09091C20.4444 9.11412 20.4314 9.24507 20.0712 9.47225C19.7126 9.69849 19.1206 9.94377 18.2795 10.1682C16.6068 10.6145 14.2101 10.9091 11.5 10.9091C8.78987 10.9091 6.39323 10.6145 4.72046 10.1682C3.87935 9.94377 3.28745 9.69849 2.92878 9.47225C2.56862 9.24507 2.55556 9.11412 2.55556 9.09091V6.01472C2.95052 6.16346 3.37668 6.29693 3.82314 6.41605C5.85008 6.95683 8.56455 7.27273 11.5 7.27273C14.4354 7.27273 17.1499 6.95683 19.1769 6.41605ZM2.55556 11.4693C2.95052 11.618 3.37668 11.7515 3.82314 11.8706C5.85008 12.4114 8.56455 12.7273 11.5 12.7273C14.4354 12.7273 17.1499 12.4114 19.1769 11.8706C19.6233 11.7515 20.0495 11.618 20.4444 11.4693V16.5621C20.42 16.5839 20.3816 16.6148 20.3234 16.6546C20.0528 16.84 19.5269 17.0908 18.6675 17.3399C16.9616 17.8344 14.4288 18.1818 11.5 18.1818C8.57121 18.1818 6.03838 17.8344 4.33248 17.3399C3.47311 17.0908 2.94715 16.84 2.67661 16.6546C2.61843 16.6148 2.58005 16.5839 2.55556 16.5621V11.4693ZM20.4775 16.5294L20.4823 16.5233C20.4823 16.5233 20.4789 16.5272 20.4775 16.5294Z" fill="#A9A9A9"/>
</svg>
