<svg width="45" height="41" viewBox="0 0 45 41" fill="none" xmlns="http://www.w3.org/2000/svg">
<path d="M9 0.75H36C40.5564 0.75 44.25 4.44365 44.25 9V32C44.25 36.5563 40.5563 40.25 36 40.25H9C4.44365 40.25 0.75 36.5564 0.75 32V9C0.75 4.44365 4.44365 0.75 9 0.75Z" stroke="#484E53" stroke-width="1.5"/>
<path d="M30.8964 27.075H32.1448C32.5016 27.075 32.8583 26.74 32.8583 26.405V14.345C32.8583 14.01 32.5016 13.675 32.1448 13.675H30.8964C30.5397 13.675 30.183 14.01 30.183 14.345V26.405C30.183 26.74 30.5397 27.075 30.8964 27.075ZM20.1952 27.075H21.4436C21.8003 27.075 22.157 26.74 22.157 26.405V16.02C22.157 15.685 21.8003 15.35 21.4436 15.35H20.1952C19.8384 15.35 19.4817 15.685 19.4817 16.02V26.405C19.4817 26.74 19.8384 27.075 20.1952 27.075ZM25.5458 27.075H26.7942C27.1509 27.075 27.5077 26.74 27.5077 26.405V19.37C27.5077 19.035 27.1509 18.7 26.7942 18.7H25.5458C25.1891 18.7 24.8323 19.035 24.8323 19.37V26.405C24.8323 26.74 25.1891 27.075 25.5458 27.075ZM36.4253 29.5875H11.4558V12.8375C11.4558 12.3748 11.0568 12 10.5641 12H9.67229C9.17958 12 8.78052 12.3748 8.78052 12.8375V30.425C8.78052 31.3499 9.57921 32.1 10.5641 32.1H36.4253C36.918 32.1 37.3171 31.7252 37.3171 31.2625V30.425C37.3171 29.9623 36.918 29.5875 36.4253 29.5875ZM14.8445 27.075H16.093C16.4497 27.075 16.8064 26.74 16.8064 26.405V22.72C16.8064 22.385 16.4497 22.05 16.093 22.05H14.8445C14.4878 22.05 14.1311 22.385 14.1311 22.72V26.405C14.1311 26.74 14.4878 27.075 14.8445 27.075Z" fill="#A9A9A9"/>
</svg>
