<svg width="37" height="38" viewBox="0 0 37 38" fill="none" xmlns="http://www.w3.org/2000/svg">
<g clip-path="url(#clip0_506_382)">
<path d="M20.6765 32.4212H16.652C16.54 32.421 16.4294 32.3952 16.3284 32.3457C16.2273 32.2961 16.1384 32.2241 16.068 32.1349C15.9977 32.0457 15.9477 31.9415 15.9217 31.83C15.8958 31.7185 15.8945 31.6025 15.918 31.4904L18.2492 20.4739C17.7628 19.835 17.3108 19.1694 16.8952 18.4801C16.3443 22.5936 12.8437 25.7748 8.61949 25.7748C4.01704 25.7763 0.271729 21.9961 0.271729 17.3496V7.07661C0.271729 6.87292 0.350805 6.67757 0.491563 6.53354C0.632321 6.38951 0.82323 6.30859 1.02229 6.30859H4.95824C5.15731 6.30859 5.34821 6.38951 5.48897 6.53354C5.62973 6.67757 5.70881 6.87292 5.70881 7.07661V17.3496C5.71031 18.9517 7.01779 20.2589 8.61949 20.2619C10.2227 20.2589 11.5302 18.9517 11.5317 17.3496V7.07661C11.5317 6.87292 11.6108 6.67757 11.7515 6.53354C11.8923 6.38951 12.0832 6.30859 12.2822 6.30859H16.2182C16.5514 6.30859 16.8442 6.53286 16.9372 6.85849C17.6508 9.30719 18.6481 11.6597 19.908 13.8659C21.4001 10.4835 24.2327 8.51127 27.7213 8.51127C32.4499 8.51127 36.2957 12.3805 36.2957 17.1346C36.2957 21.8994 32.4499 25.7748 27.7213 25.7748C26.0565 25.7742 24.4159 25.3672 22.9357 24.5874L21.4061 31.8145C21.3715 31.9862 21.2799 32.1403 21.147 32.2509C21.0141 32.3615 20.8479 32.4216 20.6765 32.4212ZM17.5827 30.8852H20.0701L21.6868 23.2434C21.7113 23.1223 21.7643 23.0092 21.841 22.9136C21.9178 22.8181 22.016 22.7431 22.1274 22.6951C22.2387 22.647 22.3598 22.6273 22.4802 22.6378C22.6006 22.6482 22.7168 22.6884 22.8186 22.7549C24.3543 23.7411 26.004 24.2403 27.7228 24.2403C31.6242 24.2403 34.7961 21.053 34.7961 17.1361C34.7961 13.2284 31.6227 10.0488 27.7228 10.0488C24.4474 10.0488 21.8609 12.2008 20.8026 15.8074C20.7609 15.9458 20.682 16.0694 20.5748 16.164C20.4677 16.2586 20.3367 16.3204 20.1968 16.3424C20.0569 16.3643 19.9138 16.3455 19.7839 16.2882C19.654 16.2308 19.5425 16.1371 19.4621 16.0179C17.934 13.7108 16.565 10.76 15.6643 7.84617H13.0343V17.3512C13.0313 19.8011 11.0513 21.7964 8.62099 21.7995C6.19067 21.7964 4.21218 19.8011 4.20918 17.3527V7.84463H1.77285V17.3496C1.77285 21.1498 4.84416 24.2403 8.61949 24.2403C12.3963 24.2403 15.4691 21.1482 15.4691 17.3496V15.6293C15.4691 15.4554 15.5267 15.2867 15.6326 15.1507C15.7384 15.0147 15.8862 14.9195 16.0518 14.8806C16.2174 14.8417 16.391 14.8615 16.5442 14.9367C16.6974 15.0118 16.8211 15.1379 16.8952 15.2944C17.7193 17.0286 18.644 18.5431 19.6423 19.7981C19.7135 19.8872 19.7641 19.9917 19.7903 20.1037C19.8166 20.2156 19.8178 20.3322 19.7939 20.4447L17.5827 30.8852ZM27.7243 21.8057C26.0641 21.8057 24.4188 21.1528 22.8352 19.8656C22.7254 19.7766 22.6423 19.6579 22.5951 19.523C22.5478 19.3881 22.5385 19.2423 22.568 19.1022L22.8952 17.5493C23.4806 14.3037 25.2385 12.462 27.7243 12.462C30.2822 12.462 32.3628 14.5571 32.3628 17.133C32.3628 19.7105 30.2807 21.8057 27.7243 21.8057ZM24.1351 18.9486C25.327 19.8257 26.5324 20.2696 27.7228 20.2696C29.4521 20.2696 30.8602 18.8626 30.8617 17.1346C30.8617 15.4065 29.4536 13.9995 27.7243 13.9995C25.5237 13.9995 24.6905 16.0609 24.3783 17.7905L24.1351 18.9486Z" fill="#DEDEDE"/>
</g>
<defs>
<clipPath id="clip0_506_382">
<rect width="36.027" height="36.8649" fill="white" transform="translate(0.270996 0.932373)"/>
</clipPath>
</defs>
</svg>
