<svg width="23" height="19" viewBox="0 0 23 19" fill="none" xmlns="http://www.w3.org/2000/svg">
<path d="M8.19401 0.941811H8.18972C7.13483 0.941811 6.26257 1.43463 5.87012 2.24042H5.52637C5.52422 2.24042 5.52207 2.24042 5.51992 2.24042C4.6097 2.24042 3.74531 2.51637 3.08646 3.01893C2.3875 3.55136 2.00222 4.28573 2.00078 5.08502C2.00007 5.73108 2.37748 6.44661 2.73483 6.89723C1.14284 7.39719 0.0607454 8.60684 0.0585969 9.94116C0.0564485 11.2696 1.13783 12.4799 2.73268 12.9844C2.37032 13.4338 1.98503 14.1454 1.98431 14.7804C1.98216 16.3556 3.57058 17.6393 5.52709 17.6426H5.87084C6.2597 18.4464 7.13412 18.9399 8.19401 18.9412H8.19903C9.61126 18.9412 10.5988 18.0445 10.601 16.7595V3.12347C10.6024 1.8411 9.61341 0.943759 8.19401 0.941811ZM8.19401 11.98C7.94121 11.98 7.73568 11.7936 7.73568 11.5644C7.73568 11.3352 7.94121 11.1489 8.19401 11.1489C8.44681 11.1489 8.65235 11.3352 8.65235 11.5644C8.65235 11.7936 8.44681 11.98 8.19401 11.98ZM10.0846 8.73346H8.45182V4.62012C8.86361 4.51688 9.16797 4.17794 9.16797 3.77278C9.16797 3.2858 8.73112 2.88972 8.19401 2.88972C7.6569 2.88972 7.22005 3.2858 7.22005 3.77278C7.22005 4.17859 7.52442 4.51688 7.9362 4.62012V8.73346H6.76172H6.76029C6.1888 8.73346 5.78848 9.09642 5.78776 9.61651V10.0321H4.11556C4.0017 9.65872 3.62787 9.38276 3.18099 9.38276C2.64388 9.38276 2.20703 9.77884 2.20703 10.2658C2.20703 10.7528 2.64388 11.1489 3.18099 11.1489C3.62858 11.1489 4.00241 10.8723 4.11556 10.4996H5.78776V14.2876C5.37598 14.3908 5.07162 14.7298 5.07162 15.1356C5.07162 15.6226 5.50847 16.0186 6.04558 16.0186C6.58268 16.0186 7.01953 15.6226 7.01953 15.1356C7.01953 14.7298 6.71517 14.3908 6.30339 14.2876V9.61651C6.3041 9.35614 6.47455 9.20031 6.761 9.20031H10.0846V16.7576C10.0825 17.7029 9.43438 18.3548 8.45182 18.4522V12.4118C8.86361 12.3085 9.16797 11.9696 9.16797 11.5638C9.16797 11.0768 8.73112 10.6807 8.19401 10.6807C7.6569 10.6807 7.22005 11.0768 7.22005 11.5638C7.22005 11.9696 7.52442 12.3085 7.9362 12.4118V18.4568C7.14629 18.3828 6.539 17.975 6.28906 17.3302C6.25254 17.2367 6.15515 17.1744 6.04558 17.1744H5.52709C4.06901 17.1725 2.49779 16.2569 2.49922 14.7811C2.50065 14.1538 3.01055 13.3468 3.36289 13.0286C3.42878 12.9695 3.45384 12.8825 3.4295 12.8013C3.40515 12.7202 3.33496 12.6572 3.24545 12.6364C1.67064 12.2689 0.572073 11.1606 0.574222 9.94116C0.57637 8.72307 1.6642 7.6212 3.22038 7.2524H5.111C5.22487 7.62574 5.5987 7.9017 6.04558 7.9017C6.58268 7.9017 7.01953 7.50562 7.01953 7.01865C7.01953 6.53167 6.58268 6.13624 6.04558 6.13624C5.59798 6.13624 5.22487 6.4122 5.111 6.78555H3.29701C2.95541 6.43427 2.51498 5.68757 2.51569 5.08567C2.51713 4.42598 2.83724 3.81953 3.41875 3.3767C3.97663 2.95141 4.74291 2.70792 5.52136 2.70792H5.52709H6.04558C6.15443 2.70792 6.25183 2.64558 6.28835 2.55273C6.56908 1.83655 7.27949 1.40931 8.18972 1.40931H8.1933C9.32695 1.41126 10.0868 2.09952 10.0846 3.12347V8.73346ZM8.19401 4.18833C7.94121 4.18833 7.73568 4.00198 7.73568 3.77278C7.73568 3.54357 7.94121 3.35722 8.19401 3.35722C8.44681 3.35722 8.65235 3.54357 8.65235 3.77278C8.65235 4.00198 8.44681 4.18833 8.19401 4.18833ZM6.04558 14.72C6.29837 14.72 6.50391 14.9064 6.50391 15.1356C6.50391 15.3648 6.29837 15.5511 6.04558 15.5511C5.79278 15.5511 5.58724 15.3648 5.58724 15.1356C5.58724 14.9064 5.79278 14.72 6.04558 14.72ZM3.63933 10.2658C3.63933 10.495 3.43379 10.6814 3.18099 10.6814C2.92819 10.6814 2.72266 10.495 2.72266 10.2658C2.72266 10.0366 2.92819 9.85026 3.18099 9.85026C3.43379 9.85026 3.63933 10.0366 3.63933 10.2658ZM5.58724 7.01929C5.58724 6.79009 5.79278 6.60374 6.04558 6.60374C6.29837 6.60374 6.50391 6.79009 6.50391 7.01929C6.50391 7.2485 6.29837 7.43485 6.04558 7.43485C5.79278 7.43485 5.58724 7.2485 5.58724 7.01929ZM22.0586 9.94116C22.06 8.61269 20.9786 7.40303 19.3845 6.89788C19.7476 6.44856 20.1322 5.73692 20.1336 5.10125C20.135 4.30196 19.7469 3.56565 19.0408 3.02802C18.3841 2.52806 17.4917 2.24107 16.5908 2.23977H16.2471C15.8575 1.43593 14.9838 0.942461 13.9246 0.941162C13.9225 0.941162 13.921 0.941162 13.9189 0.941162C13.2228 0.941162 12.6241 1.15089 12.1872 1.54696C11.7497 1.94499 11.5184 2.4891 11.5169 3.12347V16.7582C11.5148 18.0412 12.5038 18.9379 13.9225 18.9405H13.9275C14.9824 18.9405 15.8539 18.447 16.2464 17.6419H16.5894H16.5965C17.5068 17.6419 18.3712 17.3653 19.03 16.8634C19.7297 16.331 20.115 15.5972 20.1164 14.7973C20.1171 14.1512 19.7397 13.4351 19.3824 12.9851C20.9751 12.4851 22.0564 11.2755 22.0586 9.94116ZM13.9232 7.90235C14.176 7.90235 14.3815 8.0887 14.3815 8.3179C14.3815 8.54711 14.176 8.73346 13.9232 8.73346C13.6704 8.73346 13.4648 8.54711 13.4648 8.3179C13.4648 8.0887 13.6704 7.90235 13.9232 7.90235ZM18.8975 12.6293H17.0062C16.8923 12.2559 16.5185 11.98 16.0709 11.98C15.5338 11.98 15.0969 12.3761 15.0969 12.863C15.0969 13.35 15.5338 13.7461 16.0709 13.7461C16.5178 13.7461 16.8923 13.4701 17.0062 13.0968H18.8202C19.1611 13.4481 19.6015 14.1948 19.6001 14.7967C19.5993 15.4563 19.2792 16.0628 18.6977 16.505C18.1384 16.9316 17.3621 17.1608 16.5901 17.1738H16.0716C15.9628 17.1738 15.8654 17.2367 15.8288 17.3289C15.5474 18.0458 14.837 18.4724 13.9275 18.4724H13.9239C13.3646 18.4717 12.8891 18.3087 12.5496 18.0016C12.2102 17.6945 12.0311 17.2653 12.0326 16.7589V11.1489H13.6646V15.2616C13.2529 15.3648 12.9485 15.7037 12.9485 16.1095C12.9485 16.5965 13.3854 16.9926 13.9225 16.9926C14.4596 16.9926 14.8964 16.5965 14.8964 16.1095C14.8964 15.7044 14.5921 15.3648 14.1803 15.2616V11.1489H15.354H15.3562C15.9284 11.1489 16.3273 10.7859 16.3287 10.2658V9.85026H18.0002C18.1141 10.2236 18.4879 10.4996 18.9355 10.4996C19.4726 10.4996 19.9094 10.1035 19.9094 9.61651C19.9094 9.12953 19.4726 8.73346 18.9355 8.73346C18.4879 8.73346 18.1141 9.00941 18.0002 9.38276H16.3294V5.59407C16.7412 5.49083 17.0456 5.1519 17.0456 4.74673C17.0456 4.25975 16.6087 3.86368 16.0716 3.86368C15.5345 3.86368 15.0977 4.25975 15.0977 4.74673C15.0977 5.1519 15.402 5.49083 15.8138 5.59407V10.2658C15.8138 10.5262 15.6434 10.682 15.3569 10.682H15.3555H12.0326V3.12347C12.0333 2.61637 12.213 2.18523 12.5518 1.87811C12.8361 1.61968 13.2199 1.47099 13.6654 1.42814V7.46991C13.2536 7.57315 12.9492 7.91209 12.9492 8.31725C12.9492 8.80423 13.3861 9.20031 13.9232 9.20031C14.4603 9.20031 14.8971 8.80423 14.8971 8.31725C14.8971 7.91209 14.5928 7.57315 14.181 7.46991V1.42489C14.9709 1.49956 15.5782 1.90668 15.8281 2.55208C15.8646 2.64558 15.9628 2.70792 16.0716 2.70792H16.5901C17.3721 2.70857 18.1441 2.9566 18.7092 3.38644C19.2964 3.83381 19.6194 4.44221 19.618 5.10125C19.6173 5.72848 19.1066 6.53556 18.755 6.85372C18.6891 6.91281 18.6641 6.99982 18.6877 7.08098C18.712 7.16214 18.7829 7.22512 18.8725 7.2459C20.4465 7.61406 21.5451 8.72242 21.543 9.94116C21.5415 11.158 20.4544 12.2592 18.8975 12.6293ZM16.5299 12.863C16.5299 13.0922 16.3244 13.2786 16.0716 13.2786C15.8188 13.2786 15.6133 13.0922 15.6133 12.863C15.6133 12.6338 15.8188 12.4475 16.0716 12.4475C16.3244 12.4475 16.5299 12.6338 16.5299 12.863ZM13.9232 15.694C14.176 15.694 14.3815 15.8803 14.3815 16.1095C14.3815 16.3388 14.176 16.5251 13.9232 16.5251C13.6704 16.5251 13.4648 16.3388 13.4648 16.1095C13.4648 15.8803 13.6704 15.694 13.9232 15.694ZM16.0716 5.16229C15.8188 5.16229 15.6133 4.97594 15.6133 4.74673C15.6133 4.51753 15.8188 4.33118 16.0716 4.33118C16.3244 4.33118 16.5299 4.51753 16.5299 4.74673C16.5299 4.97594 16.3244 5.16229 16.0716 5.16229ZM18.4779 9.61651C18.4779 9.38731 18.6834 9.20096 18.9362 9.20096C19.189 9.20096 19.3945 9.38731 19.3945 9.61651C19.3945 9.84571 19.189 10.0321 18.9362 10.0321C18.6834 10.0321 18.4779 9.84571 18.4779 9.61651Z" fill="#A9A9A9"/>
</svg>
