<svg width="41" height="16" viewBox="0 0 41 16" fill="none" xmlns="http://www.w3.org/2000/svg">
<path d="M11.4639 8.2801V9.99477C11.0436 10.399 10.4714 10.648 9.84102 10.648C9.73616 10.648 9.63282 10.6411 9.53166 10.6277L9.54354 10.629C9.25912 10.6101 9.00051 10.5136 8.78481 10.3604L8.78942 10.3635C8.58627 10.2262 8.44582 10.0096 8.41241 9.75912L8.4119 9.75471C8.35459 9.30877 8.60608 8.96581 9.16636 8.72583C9.84366 8.48766 10.6271 8.32824 11.4407 8.28123L11.4639 8.28018L11.4639 8.2801ZM25.4939 5.50263C25.574 5.49058 25.6666 5.48374 25.7607 5.48374C26.5237 5.48374 27.1809 5.93665 27.4782 6.58827L27.483 6.60002H27.4827V9.42895C27.1686 10.0952 26.5026 10.548 25.7308 10.548C25.6291 10.548 25.5292 10.5401 25.4317 10.525L25.4425 10.5264C25.4225 10.5272 25.399 10.5276 25.3754 10.5276C24.9006 10.5276 24.4702 10.3374 24.1564 10.0289L24.1567 10.0291C23.7351 9.55777 23.4773 8.93201 23.4773 8.24606C23.4773 8.16156 23.4813 8.07799 23.4889 7.99547L23.4881 8.00605C23.4881 6.33747 24.1567 5.50301 25.4939 5.50267L25.4939 5.50263ZM17.4337 5.50263C17.5138 5.49058 17.6064 5.48374 17.7006 5.48374C18.4635 5.48374 19.1206 5.93665 19.4175 6.58839L19.4224 6.60014V9.42891C19.1083 10.0951 18.4423 10.548 17.6706 10.548C17.5688 10.548 17.4688 10.5401 17.3713 10.525L17.3821 10.5263C17.362 10.5272 17.3385 10.5276 17.3148 10.5276C16.8401 10.5276 16.4097 10.3373 16.096 10.0288L16.0963 10.029C15.6746 9.55764 15.4169 8.93197 15.4169 8.2461C15.4169 8.16152 15.4208 8.07786 15.4284 7.99526L15.4276 8.00584C15.4276 6.33731 16.0963 5.5029 17.4336 5.50259L17.4337 5.50263ZM36.6104 5.33146C36.623 5.33116 36.6379 5.33104 36.6528 5.33104C37.1795 5.33104 37.659 5.53315 38.0179 5.86412L38.0166 5.86286C38.4008 6.17838 38.6455 6.65156 38.651 7.18212V7.18296H34.5189C34.6096 6.64737 34.8752 6.18543 35.2539 5.84754L35.2561 5.84552C35.6068 5.52651 36.075 5.33133 36.5888 5.33133C36.5963 5.33133 36.604 5.33133 36.6116 5.33142L36.6104 5.33146ZM36.645 4.01135C36.6042 4.00967 36.5565 4.00867 36.5084 4.00867C35.5145 4.00867 34.6159 4.41637 33.9707 5.07357L33.9701 5.07415C33.28 5.78676 32.8546 6.75935 32.8546 7.8313C32.8546 7.86258 32.855 7.89372 32.8557 7.92483L32.8556 7.92021C32.8541 7.96185 32.8532 8.01079 32.8532 8.0599C32.8532 9.14629 33.2859 10.1316 33.9883 10.8529L33.9874 10.8521C34.704 11.5731 35.6964 12.0193 36.7929 12.0193C36.8314 12.0193 36.8697 12.0187 36.9079 12.0176L36.9023 12.0178C36.9263 12.0182 36.9545 12.0185 36.9828 12.0185C38.0319 12.0185 38.9997 11.6705 39.7771 11.0836L39.7653 11.0921C39.8568 11.0232 39.8568 10.9437 39.7653 10.8521L38.9594 10.0291C38.8906 9.96043 38.8052 9.96043 38.7021 10.0291C38.2389 10.3616 37.6606 10.5608 37.0357 10.5608C37.0248 10.5608 37.0139 10.5608 37.0031 10.5607H37.0048C36.9767 10.5618 36.9437 10.5623 36.9106 10.5623C36.2733 10.5623 35.6891 10.335 35.2347 9.95695L35.239 9.96043C34.8462 9.60616 34.5818 9.11602 34.52 8.56477L34.5191 8.5547H40.0912C40.0976 8.55566 40.1049 8.55616 40.1124 8.55616C40.1963 8.55616 40.2643 8.48817 40.2643 8.4043C40.2643 8.39675 40.2637 8.38936 40.2627 8.38214L40.2627 8.38298L40.2795 8.00634C40.2881 7.91156 40.293 7.80142 40.293 7.6901C40.293 6.6953 39.9026 5.79175 39.2668 5.12419L39.2682 5.12566C38.6303 4.43887 37.7222 4.01047 36.7142 4.01047C36.6899 4.01047 36.6657 4.01072 36.6416 4.01123H36.6452L36.645 4.01135ZM25.3223 4.01135C25.2842 4.00959 25.2396 4.00862 25.1948 4.00862C24.1614 4.00862 23.2493 4.52852 22.706 5.32117L22.6993 5.33142C22.2044 6.03995 21.9085 6.91932 21.9085 7.86786C21.9085 7.91655 21.9092 7.96504 21.9107 8.01331L21.9106 8.00626C21.9085 8.05717 21.9073 8.11699 21.9073 8.17709C21.9073 9.14805 22.2168 10.0467 22.7426 10.7798L22.7335 10.7663C23.3007 11.5305 24.2001 12.0202 25.2139 12.0202C25.2581 12.0202 25.3021 12.0193 25.3459 12.0174L25.3396 12.0177C25.3884 12.0203 25.4455 12.0218 25.503 12.0218C26.2514 12.0218 26.9407 11.7688 27.4901 11.3437L27.4827 11.3493V12.2406C27.4827 13.6807 26.7911 14.4008 25.408 14.4009C24.6557 14.3393 23.9974 13.981 23.5427 13.4447L23.5394 13.4408C23.5093 13.4091 23.4669 13.3894 23.4199 13.3894H23.4192C23.4166 13.3893 23.4135 13.3892 23.4104 13.3892C23.3605 13.3892 23.3153 13.4089 23.2822 13.441L22.4765 14.2466C22.4464 14.278 22.428 14.3206 22.428 14.3675C22.428 14.4225 22.4533 14.4715 22.493 14.5035L22.4933 14.5038C22.7221 14.698 22.9221 14.8608 23.0935 14.9924C23.2649 15.1239 23.4136 15.2297 23.5395 15.3097C24.0805 15.6222 24.7297 15.8067 25.4218 15.8067H25.4258H25.4256C25.4913 15.811 25.5682 15.8136 25.6456 15.8136C26.5886 15.8136 27.4447 15.4419 28.0756 14.837L28.0743 14.8381C28.6612 14.1552 29.0185 13.2602 29.0185 12.2818C29.0185 12.183 29.0148 12.0849 29.0076 11.988L29.0084 12.001V4.33724C29.0093 4.33082 29.0099 4.32339 29.0099 4.31584C29.0099 4.23231 28.9421 4.16452 28.8585 4.16452C28.851 4.16452 28.8436 4.16506 28.8363 4.1662L28.8371 4.16607H27.6542C27.6477 4.16506 27.6401 4.16452 27.6326 4.16452C27.5489 4.16452 27.4811 4.23231 27.4811 4.31596C27.4811 4.32352 27.4817 4.33091 27.4827 4.33821L27.4826 4.33737V4.6803C26.9181 4.26119 26.2074 4.00942 25.4381 4.00942C25.3974 4.00942 25.3569 4.01014 25.3166 4.01152L25.3224 4.01135H25.3223ZM17.2619 4.01135C17.2239 4.00959 17.1792 4.00862 17.1344 4.00862C16.1009 4.00862 15.1889 4.52852 14.6456 5.32117L14.6389 5.33142C14.144 6.03982 13.8481 6.91911 13.8481 7.86753C13.8481 7.9163 13.8488 7.96491 13.8504 8.01331L13.8502 8.00626C13.8481 8.05705 13.8469 8.11678 13.8469 8.17676C13.8469 9.14784 14.1565 10.0466 14.6823 10.7798L14.6731 10.7664C15.2403 11.5305 16.1397 12.0203 17.1536 12.0203C17.1977 12.0203 17.2417 12.0193 17.2854 12.0174L17.2791 12.0177C17.3281 12.0203 17.3853 12.0218 17.4429 12.0218C18.1913 12.0218 18.8805 11.7688 19.4298 11.3437L19.4223 11.3492V12.2405C19.4223 13.6807 18.7307 14.4007 17.3477 14.4008C16.5954 14.3392 15.9371 13.9809 15.4824 13.4446L15.4791 13.4407C15.449 13.409 15.4067 13.3893 15.3596 13.3893H15.3589C15.3563 13.3892 15.3533 13.3891 15.3501 13.3891C15.3003 13.3891 15.255 13.4088 15.2218 13.4409L14.4159 14.2466C14.3859 14.2779 14.3675 14.3204 14.3675 14.3672C14.3675 14.4223 14.393 14.4714 14.4328 14.5034L14.4332 14.5037C14.6616 14.6979 14.8617 14.8608 15.0334 14.9923C15.2046 15.1237 15.3532 15.2295 15.4792 15.3096C16.0202 15.6221 16.6693 15.8066 17.3613 15.8066H17.3652H17.365C17.4309 15.811 17.5078 15.8135 17.5854 15.8135C18.5282 15.8135 19.3843 15.4417 20.0151 14.8369L20.0138 14.8381C20.6009 14.1551 20.9582 13.2601 20.9582 12.2816C20.9582 12.1828 20.9546 12.0849 20.9475 11.9879L20.9482 12.0009V4.33712C20.9492 4.33074 20.9498 4.32327 20.9498 4.31571C20.9498 4.23218 20.882 4.16444 20.7984 4.16444C20.7909 4.16444 20.7834 4.16498 20.7762 4.16611L20.777 4.16599H19.5937C19.5872 4.16506 19.5797 4.16448 19.5721 4.16448C19.4885 4.16448 19.4208 4.23222 19.4208 4.31575C19.4208 4.32331 19.4213 4.33078 19.4225 4.338L19.4223 4.33716V4.68009C18.8579 4.26106 18.1474 4.00925 17.3782 4.00925C17.3373 4.00925 17.2967 4.00997 17.2562 4.01135L17.2621 4.01119L17.2619 4.01135ZM10.0065 4.01135C8.97428 4.02449 8.02364 4.36335 7.24992 4.92959L7.26335 4.92019C7.17184 5.0117 7.15463 5.09145 7.2118 5.1602L7.82883 6.03437C7.8745 6.11441 7.94917 6.1257 8.05205 6.06858C8.59143 5.66092 9.2671 5.40705 10.0009 5.38288L10.0065 5.38271C10.0406 5.37964 10.0804 5.37792 10.1205 5.37792C10.8687 5.37792 11.4753 5.98446 11.4753 6.7327C11.4753 6.79482 11.4711 6.85594 11.463 6.91579L11.4637 6.90883C10.5406 6.98459 9.69297 7.13024 8.87245 7.34318L8.97739 7.32009C7.58285 7.72006 6.88565 8.48019 6.88579 9.6005C6.88524 9.61787 6.88495 9.63827 6.88495 9.65884C6.88495 10.3328 7.18318 10.9371 7.65476 11.3471L7.65753 11.3493C8.14297 11.7652 8.77855 12.0183 9.47315 12.0183C9.49191 12.0183 9.51051 12.0181 9.52919 12.0177H9.52642C9.56629 12.0195 9.61322 12.0206 9.66032 12.0206C10.3357 12.0206 10.9612 11.8076 11.4735 11.4452L11.4637 11.4517V11.6921C11.4637 11.8066 11.5265 11.8634 11.6522 11.8634H12.8352C12.8417 11.8643 12.8491 11.8649 12.8568 11.8649C12.9403 11.8649 13.008 11.7972 13.008 11.7137C13.008 11.7062 13.0074 11.6986 13.0063 11.6913L13.0064 11.6922V6.94304C13.012 6.87806 13.0152 6.80242 13.0152 6.72603C13.0152 5.82063 12.5685 5.01946 11.8835 4.53104L11.8753 4.52546C11.3746 4.20209 10.7629 4.00988 10.1063 4.00988C10.0712 4.00988 10.0362 4.01043 10.0014 4.01156L10.0064 4.0114L10.0065 4.01135ZM30.4561 0.187791C30.4497 0.186825 30.4423 0.186279 30.4348 0.186279C30.3512 0.186279 30.2834 0.25407 30.2834 0.337683C30.2834 0.345239 30.284 0.352583 30.2851 0.359803L30.2849 0.358964V11.6923C30.284 11.6988 30.2834 11.7062 30.2834 11.7138C30.2834 11.7973 30.3511 11.865 30.4346 11.865C30.4422 11.865 30.4496 11.8644 30.4569 11.8634L30.4561 11.8634H31.6395C31.6459 11.8644 31.6533 11.8649 31.6609 11.8649C31.7444 11.8649 31.8122 11.7972 31.8122 11.7136C31.8122 11.7061 31.8116 11.6986 31.8105 11.6914L31.8106 11.6922V0.359048C31.8116 0.352668 31.8121 0.34528 31.8121 0.337724C31.8121 0.254194 31.7444 0.186364 31.6608 0.186364C31.6533 0.186364 31.6459 0.186909 31.6386 0.187959L31.6394 0.187875L30.4561 0.187791ZM0.17302 0.187791C0.166598 0.186825 0.159168 0.186279 0.151613 0.186279C0.0678731 0.186279 0 0.254153 0 0.337809C0 0.345364 0.000545756 0.352668 0.00159512 0.359845L0.00151106 0.359089V11.6924C0.000545642 11.6989 0 11.7063 0 11.7138C0 11.7976 0.0678731 11.8655 0.151613 11.8655C0.159168 11.8655 0.16664 11.8649 0.173859 11.8638L0.17302 11.8639H1.35629C1.36267 11.8649 1.37006 11.8654 1.37761 11.8654C1.46139 11.8654 1.52935 11.7975 1.52935 11.7137C1.52935 11.7061 1.52876 11.6986 1.52767 11.6913L1.52775 11.6922V9.2064L2.23054 8.53749L4.75099 11.7434C4.80707 11.8158 4.8935 11.8622 4.9908 11.8636H6.51687C6.59675 11.8636 6.64237 11.8409 6.654 11.7953C6.66156 11.7775 6.66605 11.7567 6.66605 11.735C6.66605 11.6913 6.64817 11.6518 6.61937 11.6236L3.2933 7.49144L6.48274 4.40571C6.50281 4.38136 6.51494 4.34996 6.51494 4.31567C6.51494 4.29216 6.50923 4.27008 6.49916 4.25061L6.49958 4.25136C6.47985 4.20057 6.43141 4.16519 6.3747 4.16519C6.37042 4.16519 6.36622 4.1654 6.36211 4.16578L6.36261 4.16569H4.7852C4.68891 4.17228 4.60429 4.21732 4.54561 4.28545L4.54519 4.28595L1.52775 7.33768V0.359384C1.52868 0.353088 1.52922 0.345784 1.52922 0.338312C1.52922 0.254573 1.46131 0.186657 1.37757 0.186657C1.37001 0.186657 1.36263 0.187245 1.35532 0.188337L1.35616 0.188211L0.17302 0.187791Z" fill="#A9A9A9"/>
</svg>
