<svg version="1.1" id="Layer_1" xmlns="http://www.w3.org/2000/svg" xmlns:xlink="http://www.w3.org/1999/xlink" x="0px" y="0px"
	 width="100%" viewBox="0 0 500 500" enable-background="new 0 0 500 500" xml:space="preserve">
<path fill="#010101" opacity="1.000000" stroke="none" 
	d="
M272.000000,501.000000 
	C181.333359,501.000000 91.166710,501.000000 1.000048,501.000000 
	C1.000032,334.333405 1.000032,167.666794 1.000016,1.000138 
	C167.666565,1.000092 334.333130,1.000092 500.999756,1.000046 
	C500.999847,167.666519 500.999847,334.333038 500.999939,500.999786 
	C424.833344,501.000000 348.666656,501.000000 272.000000,501.000000 
M158.315948,262.120270 
	C151.289856,269.994080 144.263763,277.867920 137.237671,285.741730 
	C137.754898,286.181732 138.272110,286.621735 138.789337,287.061707 
	C145.886475,279.053192 152.983597,271.044678 160.680878,262.750732 
	C206.658310,211.806122 252.635757,160.861511 298.613220,109.916908 
	C297.826752,109.160370 297.040253,108.403839 296.253784,107.647301 
	C295.482513,109.093338 294.966614,110.769257 293.902374,111.951607 
	C270.071930,138.426910 246.157166,164.826248 222.309036,191.285675 
	C201.146927,214.764984 180.046188,238.299576 158.315948,262.120270 
M239.400742,53.096882 
	C240.594833,56.631462 242.748123,60.146404 242.820953,63.703941 
	C243.182419,81.355675 242.999176,99.018661 242.977280,116.677643 
	C242.976761,117.103294 242.619629,117.528503 242.518524,117.753952 
	C209.722443,117.753952 177.123810,117.753952 144.795181,117.753952 
	C144.795181,98.682121 144.566818,79.867065 144.913284,61.062592 
	C145.042679,54.040020 148.512222,51.012043 155.459656,50.035992 
	C158.587173,49.596615 161.776917,49.595596 164.901077,49.139793 
	C165.731277,49.018673 166.423386,47.951168 168.107162,46.540440 
	C165.477676,46.340572 164.340820,46.179626 163.203857,46.178925 
	C146.390396,46.168518 129.576935,46.179745 112.763481,46.183865 
	C112.097168,46.184029 111.346497,45.965324 110.785248,46.203037 
	C110.031372,46.522339 109.423813,47.187099 108.753441,47.703564 
	C109.436600,48.214848 110.072899,49.076401 110.811249,49.175175 
	C113.612038,49.549862 116.454529,49.599686 119.265678,49.912498 
	C127.375961,50.814991 130.444901,54.000164 130.983276,62.033855 
	C131.105637,63.859825 131.079544,65.697403 131.079880,67.529648 
	C131.086838,104.514648 131.089813,141.499649 131.084671,178.484650 
	C131.084351,180.816330 131.137619,183.158325 130.948502,185.477798 
	C130.319443,193.192764 127.613396,196.138367 119.999557,197.233734 
	C116.880096,197.682510 113.692749,197.651031 110.566154,198.064087 
	C109.679398,198.181244 108.897903,199.095108 108.068138,199.643600 
	C108.235123,199.997574 108.402107,200.351562 108.569099,200.705551 
	C127.959877,200.705551 147.350647,200.705551 166.741440,200.705551 
	C166.887314,200.290253 167.033188,199.874954 167.179077,199.459656 
	C166.055054,198.969986 164.968903,198.203217 163.799820,198.043518 
	C160.508667,197.593918 157.155853,197.569916 153.877670,197.056747 
	C148.164474,196.162399 145.683853,193.614212 144.937439,187.996231 
	C144.565674,185.198105 144.369125,182.356766 144.358307,179.533951 
	C144.298218,163.873886 144.319321,148.213501 144.313156,132.553238 
	C144.311935,129.449677 144.312988,126.346100 144.312988,123.253647 
	C177.558792,123.253647 210.259628,123.253647 243.401154,123.253647 
	C243.401154,126.427177 243.401154,129.236664 243.401154,132.836929 
	C245.719437,129.055191 247.536179,126.091614 249.351761,123.129913 
	C251.492859,124.276619 253.576141,125.392357 256.010620,126.696182 
	C256.010620,107.417427 256.009491,88.761818 256.010956,70.106216 
	C256.012329,52.485020 258.017334,50.362663 275.422546,49.204250 
	C276.628540,49.123985 277.778992,48.209549 278.955292,47.683037 
	C277.776031,47.176586 276.599121,46.235443 275.417145,46.229027 
	C258.271576,46.135986 241.125244,46.143970 223.979477,46.218590 
	C222.671265,46.224281 221.366058,46.913704 218.923935,47.608253 
	C226.509705,49.521717 232.641968,51.068546 239.400742,53.096882 
M271.500000,239.012512 
	C259.869263,239.012512 248.238495,239.012512 236.226074,239.012512 
	C236.226074,235.464096 236.226074,232.352661 236.226074,227.864166 
	C232.437805,234.075882 229.499069,239.196533 226.254089,244.115128 
	C223.876373,247.719147 222.950302,251.427551 223.006042,255.781967 
	C223.212936,271.944183 223.157166,288.111633 223.024734,304.275635 
	C222.943726,314.162109 220.031021,317.291168 210.211426,318.559540 
	C207.741058,318.878662 205.212204,318.743286 202.740967,319.058228 
	C201.802460,319.177795 200.950607,319.977448 199.764297,320.629150 
	C200.735428,321.467224 200.978729,321.861298 201.223480,321.862183 
	C219.716019,321.929779 238.208740,321.987396 256.701141,321.937744 
	C257.545258,321.935486 258.386719,320.945129 259.229401,320.414978 
	C254.357117,318.971130 249.905960,318.660034 245.502350,318.021240 
	C240.446259,317.287811 237.410538,314.299500 236.940140,309.113068 
	C236.609711,305.469604 236.364777,301.804657 236.352814,298.148407 
	C236.294113,280.196686 236.326172,262.244720 236.326172,244.220764 
	C269.441498,244.220764 302.155640,244.220764 335.036774,244.220764 
	C335.036774,258.203522 335.047516,271.855011 335.032288,285.506500 
	C335.024475,292.505188 335.231659,299.517426 334.867859,306.498871 
	C334.452301,314.475311 331.822937,317.163788 324.084503,318.277374 
	C320.964447,318.726379 317.773712,318.669830 314.641174,319.054993 
	C313.710876,319.169403 312.869141,320.003967 311.986847,320.508545 
	C312.137970,320.883545 312.289093,321.258514 312.440216,321.633514 
	C331.917786,321.633514 351.395355,321.633514 370.872925,321.633514 
	C370.974670,321.030243 371.076447,320.426971 371.178192,319.823700 
	C369.502472,319.541534 367.833679,319.068054 366.149963,319.007050 
	C351.043365,318.459778 348.020386,315.426453 348.014557,300.493164 
	C347.999939,263.163422 348.002594,225.833664 348.025909,188.503937 
	C348.027344,186.177933 348.077850,183.823013 348.430634,181.531616 
	C349.499695,174.588409 352.469696,171.795715 359.576813,170.956207 
	C363.312714,170.514893 367.070343,170.257233 370.818146,169.916656 
	C370.947510,169.461670 371.076874,169.006668 371.206238,168.551682 
	C370.076813,168.089371 368.949402,167.229950 367.817657,167.224213 
	C350.333191,167.135513 332.848053,167.133804 315.363495,167.210068 
	C314.247955,167.214935 313.135925,168.023544 312.022247,168.458252 
	C312.114136,168.912735 312.205994,169.367218 312.297882,169.821701 
	C314.702667,170.061157 317.108246,170.292664 319.512054,170.541382 
	C332.305084,171.865067 334.982269,174.773392 335.019196,187.546341 
	C335.055298,200.045044 335.032349,212.543930 335.034729,225.042725 
	C335.035614,229.639359 335.034882,234.235977 335.034882,239.012512 
	C313.790649,239.012512 293.145325,239.012512 271.500000,239.012512 
M259.126709,454.420013 
	C260.225220,455.884521 261.474792,457.260864 262.391541,458.831451 
	C264.463440,462.381042 267.154633,464.211121 271.475891,462.603546 
	C271.475891,450.795807 271.475891,438.925690 271.475891,427.083435 
	C269.382874,427.083435 267.618134,427.083435 265.378601,427.083435 
	C265.378601,435.211884 265.378601,443.069672 265.378601,452.294373 
	C259.415253,444.307678 254.093170,437.569580 249.238419,430.510162 
	C246.881851,427.083374 244.282150,425.949005 240.433197,427.220734 
	C240.433197,439.096252 240.433197,450.979584 240.433197,462.775726 
	C242.541687,462.775726 244.315826,462.775726 246.639496,462.775726 
	C246.639496,454.696198 246.639496,446.852386 246.639496,437.631958 
	C251.247803,443.798920 254.991699,448.809113 259.126709,454.420013 
M405.871002,370.463928 
	C405.871002,374.050537 405.871002,377.637146 405.871002,382.566254 
	C399.749298,374.394684 394.211639,367.423645 389.178986,360.105347 
	C386.701477,356.502655 383.989502,356.197144 380.672729,357.277222 
	C380.672729,369.337128 380.672729,381.074097 380.672729,392.817200 
	C382.797363,392.817200 384.575256,392.817200 386.876831,392.817200 
	C386.876831,384.766418 386.876831,376.913422 386.876831,367.642303 
	C392.774292,375.532013 398.018250,382.102783 402.729431,389.035553 
	C405.128784,392.566254 407.706512,393.899933 411.817017,392.618835 
	C411.817017,380.747620 411.817017,368.986359 411.817017,357.165161 
	C409.779358,357.165161 407.912048,357.165161 405.871613,357.165161 
	C405.871613,361.506470 405.871613,365.495148 405.871002,370.463928 
M39.336201,381.471558 
	C39.336201,385.243805 39.336201,389.016052 39.336201,392.650818 
	C41.814766,392.650818 43.701679,392.650818 45.925125,392.650818 
	C45.925125,389.013000 45.925125,385.747894 45.925125,382.585815 
	C52.589600,380.920990 57.531429,382.154602 59.935928,388.955017 
	C61.533718,393.473938 64.826790,393.827362 69.062386,392.419586 
	C66.467216,388.515533 64.037315,384.860107 61.533386,381.093323 
	C67.534912,377.756073 69.552338,372.948761 68.669922,366.965607 
	C67.910851,361.818848 64.698669,358.076721 59.682289,357.555389 
	C53.035114,356.864655 46.262066,357.385193 39.335114,357.385193 
	C39.335114,365.183289 39.335114,372.832214 39.336201,381.471558 
M345.167328,377.706238 
	C346.592133,377.609406 348.016937,377.512604 349.760712,377.394135 
	C349.623383,375.336884 349.518799,373.769653 349.390869,371.853302 
	C343.392761,371.853302 337.798767,371.853302 332.176453,371.853302 
	C332.176453,368.532593 332.176453,365.594360 332.176453,362.301178 
	C338.681366,362.301178 344.961731,362.301178 351.501007,362.301178 
	C351.501007,360.359589 351.501007,358.774292 351.501007,357.041504 
	C342.909943,357.041504 334.488281,357.041504 326.089020,357.041504 
	C326.089020,369.135468 326.089020,380.993103 326.089020,392.858246 
	C334.900757,392.858246 343.353760,392.858246 351.877625,392.858246 
	C351.877625,390.960938 351.877625,389.231293 351.877625,387.182770 
	C345.109283,387.182770 338.683655,387.182770 332.168091,387.182770 
	C332.168091,383.929962 332.168091,381.003723 332.168091,377.706482 
	C336.326630,377.706482 340.281433,377.706482 345.167328,377.706238 
M185.726257,442.506012 
	C185.726257,449.273529 185.726257,456.041046 185.726257,462.731659 
	C194.852402,462.731659 203.427063,462.731659 212.267380,462.731659 
	C212.163086,460.830505 212.075623,459.236389 211.970718,457.324402 
	C205.230011,457.324402 198.804230,457.324402 192.288574,457.324402 
	C192.288574,453.926270 192.288574,450.873138 192.288574,447.404358 
	C198.209824,447.404358 203.800735,447.404358 209.727325,447.404358 
	C209.613892,445.394531 209.525330,443.825348 209.416626,441.899475 
	C203.432251,441.899475 197.835938,441.899475 192.336578,441.899475 
	C192.336578,438.483185 192.336578,435.463135 192.336578,432.059021 
	C198.970016,432.059021 205.225418,432.059021 211.818512,432.059021 
	C211.682526,430.089050 211.576004,428.545929 211.480789,427.166443 
	C202.597839,427.166443 194.207657,427.166443 185.753922,427.166443 
	C185.753922,432.186371 185.753922,436.848297 185.726257,442.506012 
M121.266418,393.032898 
	C126.113014,393.206421 123.320091,389.787354 124.184662,387.284637 
	C117.159386,387.284637 110.601395,387.284637 104.094246,387.284637 
	C104.094246,383.796143 104.094246,380.891449 104.094246,377.707336 
	C109.834633,377.707336 115.279297,377.707336 121.017845,377.707336 
	C121.017845,375.684265 121.017845,373.949310 121.017845,371.822784 
	C115.177162,371.822784 109.580101,371.822784 104.086662,371.822784 
	C104.086662,368.496307 104.086662,365.566101 104.086662,362.205475 
	C110.630341,362.205475 116.884201,362.205475 123.452835,362.205475 
	C123.344025,360.177979 123.259583,358.604462 123.178978,357.102478 
	C114.358635,357.102478 105.942894,357.102478 97.593735,357.102478 
	C97.593735,369.184875 97.593735,380.954834 97.593735,393.033386 
	C105.354439,393.033386 112.829910,393.033386 121.266418,393.032898 
M403.046631,426.712555 
	C401.058685,426.772980 399.041779,426.639221 397.088196,426.930359 
	C391.304352,427.792328 387.834229,431.153290 387.430359,436.034485 
	C387.051941,440.608002 389.437714,443.805511 394.910706,445.883423 
	C398.006073,447.058594 401.307251,447.807983 404.202515,449.340759 
	C405.487915,450.021271 406.836304,452.299377 406.626038,453.606049 
	C406.415466,454.914459 404.388733,456.721313 402.995148,456.880127 
	C400.289154,457.188568 397.369781,456.851196 394.725494,456.112793 
	C392.312653,455.439026 390.146637,453.881134 387.656433,452.602264 
	C386.843994,454.382904 386.173187,455.853119 385.408478,457.529175 
	C391.858704,463.015472 398.952942,464.619263 406.826263,462.031555 
	C411.162415,460.606384 413.797668,457.450439 413.820190,452.744537 
	C413.841614,448.268127 411.475403,445.253143 407.265778,443.734833 
	C404.459747,442.722748 401.397095,442.157135 398.897156,440.649231 
	C397.057861,439.539795 395.943542,437.228516 394.506134,435.452850 
	C396.567078,434.433441 398.659393,432.524078 400.681824,432.595459 
	C404.023010,432.713318 407.319122,434.109406 411.012024,435.064575 
	C411.671387,433.707916 412.436462,432.133789 413.581085,429.778687 
	C410.044403,428.698639 406.951111,427.753998 403.046631,426.712555 
M168.505295,356.983856 
	C164.742859,357.260345 160.843048,357.012695 157.254608,357.953156 
	C153.253494,359.001740 151.006607,362.173279 150.977402,366.558990 
	C150.948334,370.922668 153.040848,373.806976 157.090317,375.286194 
	C159.738602,376.253601 162.433624,377.093414 165.078781,378.068909 
	C167.762772,379.058685 170.825806,380.031311 170.129166,383.754547 
	C169.428802,387.497711 165.993179,387.659180 163.350464,387.148560 
	C159.240646,386.354492 155.302841,384.670288 150.956390,383.253967 
	C150.475769,384.209076 149.678802,385.792877 148.916000,387.308746 
	C155.944382,393.376068 165.139450,394.972717 171.771378,391.436493 
	C175.294662,389.557800 177.291733,386.733551 177.252884,382.629120 
	C177.214050,378.524689 175.308640,375.617981 171.538803,374.080994 
	C168.315643,372.766846 164.801437,372.026825 161.812149,370.333435 
	C160.136841,369.384430 159.266434,367.014465 158.033386,365.284698 
	C159.804718,364.315308 161.635910,362.447540 163.335083,362.560822 
	C167.043015,362.807922 170.683792,364.062653 174.691086,364.983643 
	C175.288712,363.636719 175.994537,362.045898 176.920929,359.957947 
	C174.206131,358.925354 171.757782,357.994110 168.505295,356.983856 
M62.549862,429.078644 
	C56.403912,426.197693 49.891228,425.008331 43.930840,428.555115 
	C41.445473,430.034088 39.649055,433.820923 38.962711,436.877899 
	C38.130692,440.583771 40.533943,443.549835 44.161335,444.993835 
	C47.543297,446.340179 51.167732,447.174896 54.364445,448.848083 
	C55.963043,449.684814 56.845417,451.889923 58.051731,453.476135 
	C56.339161,454.720581 54.485054,457.166962 52.940445,456.985046 
	C48.234810,456.430939 43.648533,454.863251 38.524483,453.565704 
	C38.196117,454.263184 37.447643,455.852936 36.748066,457.338867 
	C43.692562,463.422882 53.067142,464.968170 59.631454,461.346375 
	C63.117577,459.422943 65.090881,456.627136 65.016586,452.507874 
	C64.942078,448.376801 62.961979,445.559937 59.214729,444.049103 
	C56.144093,442.811127 52.747135,442.195068 49.948627,440.537231 
	C48.162922,439.479401 47.204376,437.025269 45.874981,435.197144 
	C47.820786,434.257843 49.821236,432.448883 51.700584,432.566986 
	C55.209465,432.787476 58.648006,434.127289 63.240452,435.284821 
	C63.240452,433.192474 63.240452,431.333679 62.549862,429.078644 
M111.104225,457.213226 
	C102.434151,457.649292 96.541763,453.120972 96.040504,445.636719 
	C95.590698,438.920563 100.571518,432.559692 107.497940,432.421265 
	C111.349953,432.344269 115.242943,434.317230 120.114449,435.636261 
	C119.905968,435.976654 120.320145,435.258026 120.776314,434.567139 
	C121.287361,433.793091 121.836334,433.044098 122.333992,432.333893 
	C113.634422,424.394958 101.212891,424.885162 94.013107,433.149902 
	C87.395676,440.746155 88.562851,452.334534 96.284012,459.085571 
	C103.775513,465.635803 118.165817,463.914185 122.196831,456.745850 
	C121.260773,455.529114 120.280205,454.254517 119.760582,453.579102 
	C116.441154,455.069458 114.196655,456.077209 111.104225,457.213226 
M455.004120,444.508209 
	C455.004120,440.541199 455.004120,436.574158 455.004120,432.224670 
	C458.959412,432.224670 462.561005,432.224670 466.291992,432.224670 
	C466.291992,430.281982 466.291992,428.727631 466.291992,427.055878 
	C456.595795,427.055878 447.196106,427.055878 437.627625,427.055878 
	C437.627625,428.844055 437.627625,430.387085 437.627625,432.371307 
	C441.487122,432.371307 445.065186,432.371307 449.106415,432.371307 
	C449.106415,442.854675 449.106415,452.899139 449.106415,463.094330 
	C451.343842,462.970276 453.088440,462.873535 455.004120,462.767303 
	C455.004120,456.762329 455.004120,451.133270 455.004120,444.508209 
M241.106003,387.371002 
	C241.106003,389.142792 241.106003,390.914551 241.106003,392.775208 
	C248.704926,392.775208 255.778122,392.775208 263.064667,392.775208 
	C262.975708,390.918457 262.899170,389.321106 262.799896,387.248871 
	C257.638916,387.248871 252.723816,387.248871 247.374603,387.248871 
	C247.374603,376.886810 247.374603,367.005707 247.374603,357.136536 
	C245.019730,357.136536 243.122772,357.136536 241.105606,357.136536 
	C241.105606,367.117645 241.105606,376.758942 241.106003,387.371002 
M455.211151,364.933441 
	C456.229614,364.051788 457.164948,362.562042 458.283051,362.409210 
	C460.998230,362.038086 463.798340,362.288483 466.887695,362.288483 
	C466.784180,360.080139 466.711914,358.538361 466.647308,357.160278 
	C456.707397,357.160278 447.302307,357.160278 437.675049,357.160278 
	C437.791779,359.082001 437.887085,360.651215 438.001495,362.535034 
	C441.925293,362.535034 445.359406,362.535034 449.142365,362.535034 
	C449.142365,372.801300 449.142365,382.724945 449.142365,392.655884 
	C451.386536,392.655884 453.255066,392.655884 455.228241,392.655884 
	C455.228241,383.491638 455.228241,374.677429 455.211151,364.933441 
M308.828644,432.919495 
	C308.828644,442.844360 308.828644,452.769226 308.828644,462.641479 
	C311.414978,462.641479 313.284882,462.641479 315.552612,462.641479 
	C315.552612,452.377411 315.552612,442.476044 315.552612,432.062531 
	C319.522797,432.062531 323.087158,432.062531 326.614899,432.062531 
	C326.614899,430.106476 326.614899,428.684631 326.614899,427.042725 
	C316.976685,427.042725 307.578125,427.042725 297.977600,427.042725 
	C297.977600,428.807526 297.977600,430.357941 297.977600,432.350769 
	C301.503571,432.350769 304.792023,432.350769 308.828644,432.919495 
M149.291245,434.646606 
	C149.291245,444.038666 149.291245,453.430695 149.291245,462.679321 
	C151.822479,462.679321 153.706238,462.679321 155.587860,462.679321 
	C155.587860,450.600616 155.587860,438.896698 155.587860,427.042236 
	C153.423752,427.042236 151.510498,427.042236 149.290054,427.042236 
	C149.290054,429.440735 149.290054,431.568054 149.291245,434.646606 
M289.293304,384.426331 
	C289.293304,387.206451 289.293304,389.986572 289.293304,392.741272 
	C291.725006,392.741272 293.625061,392.741272 295.662720,392.741272 
	C295.662720,380.707611 295.662720,368.986298 295.662720,357.156372 
	C293.460419,357.156372 291.435486,357.156372 289.292999,357.156372 
	C289.292999,366.187286 289.292999,374.815521 289.293304,384.426331 
M352.291443,438.536682 
	C352.291443,446.621246 352.291443,454.705811 352.291443,462.731873 
	C354.748901,462.731873 356.647980,462.731873 358.650574,462.731873 
	C358.650574,450.698395 358.650574,438.986664 358.650574,427.025848 
	C356.561462,427.025848 354.651764,427.025848 352.291534,427.025848 
	C352.291534,430.678192 352.291534,434.115479 352.291443,438.536682 
M208.506058,356.840363 
	C206.732788,356.833496 204.905472,356.296997 204.945816,359.353821 
	C205.092499,370.467834 205.003693,381.584930 205.003693,392.803833 
	C207.201431,392.803833 208.948883,392.803833 211.081497,392.803833 
	C211.081497,381.326355 211.107590,370.039032 211.012589,358.752747 
	C211.007263,358.118011 210.005127,357.491669 208.506058,356.840363 
M309.426422,94.897568 
	C305.928040,98.778503 302.429688,102.659431 298.648987,106.853561 
	C302.761749,106.184250 315.927490,91.995735 316.756897,86.986977 
	C314.079865,89.865997 311.986816,92.116974 309.426422,94.897568 
z"/>
<path fill="#F8F8F8" opacity="1.000000" stroke="none" 
	d="
M239.087494,52.856133 
	C232.641968,51.068546 226.509705,49.521717 218.923935,47.608253 
	C221.366058,46.913704 222.671265,46.224281 223.979477,46.218590 
	C241.125244,46.143970 258.271576,46.135986 275.417145,46.229027 
	C276.599121,46.235443 277.776031,47.176586 278.955292,47.683037 
	C277.778992,48.209549 276.628540,49.123985 275.422546,49.204250 
	C258.017334,50.362663 256.012329,52.485020 256.010956,70.106216 
	C256.009491,88.761818 256.010620,107.417427 256.010620,126.696182 
	C253.576141,125.392357 251.492859,124.276619 249.351761,123.129913 
	C247.536179,126.091614 245.719437,129.055191 243.401154,132.836929 
	C243.401154,129.236664 243.401154,126.427177 243.401154,123.253647 
	C210.259628,123.253647 177.558792,123.253647 144.312988,123.253647 
	C144.312988,126.346100 144.311935,129.449677 144.313156,132.553238 
	C144.319321,148.213501 144.298218,163.873886 144.358307,179.533951 
	C144.369125,182.356766 144.565674,185.198105 144.937439,187.996231 
	C145.683853,193.614212 148.164474,196.162399 153.877670,197.056747 
	C157.155853,197.569916 160.508667,197.593918 163.799820,198.043518 
	C164.968903,198.203217 166.055054,198.969986 167.179077,199.459656 
	C167.033188,199.874954 166.887314,200.290253 166.741440,200.705551 
	C147.350647,200.705551 127.959877,200.705551 108.569099,200.705551 
	C108.402107,200.351562 108.235123,199.997574 108.068138,199.643600 
	C108.897903,199.095108 109.679398,198.181244 110.566154,198.064087 
	C113.692749,197.651031 116.880096,197.682510 119.999557,197.233734 
	C127.613396,196.138367 130.319443,193.192764 130.948502,185.477798 
	C131.137619,183.158325 131.084351,180.816330 131.084671,178.484650 
	C131.089813,141.499649 131.086838,104.514648 131.079880,67.529648 
	C131.079544,65.697403 131.105637,63.859825 130.983276,62.033855 
	C130.444901,54.000164 127.375961,50.814991 119.265678,49.912498 
	C116.454529,49.599686 113.612038,49.549862 110.811249,49.175175 
	C110.072899,49.076401 109.436600,48.214848 108.753441,47.703564 
	C109.423813,47.187099 110.031372,46.522339 110.785248,46.203037 
	C111.346497,45.965324 112.097168,46.184029 112.763481,46.183865 
	C129.576935,46.179745 146.390396,46.168518 163.203857,46.178925 
	C164.340820,46.179626 165.477676,46.340572 168.107162,46.540440 
	C166.423386,47.951168 165.731277,49.018673 164.901077,49.139793 
	C161.776917,49.595596 158.587173,49.596615 155.459656,50.035992 
	C148.512222,51.012043 145.042679,54.040020 144.913284,61.062592 
	C144.566818,79.867065 144.795181,98.682121 144.795181,117.753952 
	C177.123810,117.753952 209.722443,117.753952 242.518524,117.753952 
	C242.619629,117.528503 242.976761,117.103294 242.977280,116.677643 
	C242.999176,99.018661 243.182419,81.355675 242.820953,63.703941 
	C242.748123,60.146404 240.594833,56.631462 239.087494,52.856133 
z"/>
<path fill="#F9F9F9" opacity="1.000000" stroke="none" 
	d="
M272.000000,239.012512 
	C293.145325,239.012512 313.790649,239.012512 335.034882,239.012512 
	C335.034882,234.235977 335.035614,229.639359 335.034729,225.042725 
	C335.032349,212.543930 335.055298,200.045044 335.019196,187.546341 
	C334.982269,174.773392 332.305084,171.865067 319.512054,170.541382 
	C317.108246,170.292664 314.702667,170.061157 312.297882,169.821701 
	C312.205994,169.367218 312.114136,168.912735 312.022247,168.458252 
	C313.135925,168.023544 314.247955,167.214935 315.363495,167.210068 
	C332.848053,167.133804 350.333191,167.135513 367.817657,167.224213 
	C368.949402,167.229950 370.076813,168.089371 371.206238,168.551682 
	C371.076874,169.006668 370.947510,169.461670 370.818146,169.916656 
	C367.070343,170.257233 363.312714,170.514893 359.576813,170.956207 
	C352.469696,171.795715 349.499695,174.588409 348.430634,181.531616 
	C348.077850,183.823013 348.027344,186.177933 348.025909,188.503937 
	C348.002594,225.833664 347.999939,263.163422 348.014557,300.493164 
	C348.020386,315.426453 351.043365,318.459778 366.149963,319.007050 
	C367.833679,319.068054 369.502472,319.541534 371.178192,319.823700 
	C371.076447,320.426971 370.974670,321.030243 370.872925,321.633514 
	C351.395355,321.633514 331.917786,321.633514 312.440216,321.633514 
	C312.289093,321.258514 312.137970,320.883545 311.986847,320.508545 
	C312.869141,320.003967 313.710876,319.169403 314.641174,319.054993 
	C317.773712,318.669830 320.964447,318.726379 324.084503,318.277374 
	C331.822937,317.163788 334.452301,314.475311 334.867859,306.498871 
	C335.231659,299.517426 335.024475,292.505188 335.032288,285.506500 
	C335.047516,271.855011 335.036774,258.203522 335.036774,244.220764 
	C302.155640,244.220764 269.441498,244.220764 236.326172,244.220764 
	C236.326172,262.244720 236.294113,280.196686 236.352814,298.148407 
	C236.364777,301.804657 236.609711,305.469604 236.940140,309.113068 
	C237.410538,314.299500 240.446259,317.287811 245.502350,318.021240 
	C249.905960,318.660034 254.357117,318.971130 259.229401,320.414978 
	C258.386719,320.945129 257.545258,321.935486 256.701141,321.937744 
	C238.208740,321.987396 219.716019,321.929779 201.223480,321.862183 
	C200.978729,321.861298 200.735428,321.467224 199.764297,320.629150 
	C200.950607,319.977448 201.802460,319.177795 202.740967,319.058228 
	C205.212204,318.743286 207.741058,318.878662 210.211426,318.559540 
	C220.031021,317.291168 222.943726,314.162109 223.024734,304.275635 
	C223.157166,288.111633 223.212936,271.944183 223.006042,255.781967 
	C222.950302,251.427551 223.876373,247.719147 226.254089,244.115128 
	C229.499069,239.196533 232.437805,234.075882 236.226074,227.864166 
	C236.226074,232.352661 236.226074,235.464096 236.226074,239.012512 
	C248.238495,239.012512 259.869263,239.012512 272.000000,239.012512 
z"/>
<path fill="#F3F3F3" opacity="1.000000" stroke="none" 
	d="
M258.931152,454.119629 
	C254.991699,448.809113 251.247803,443.798920 246.639496,437.631958 
	C246.639496,446.852386 246.639496,454.696198 246.639496,462.775726 
	C244.315826,462.775726 242.541687,462.775726 240.433197,462.775726 
	C240.433197,450.979584 240.433197,439.096252 240.433197,427.220734 
	C244.282150,425.949005 246.881851,427.083374 249.238419,430.510162 
	C254.093170,437.569580 259.415253,444.307678 265.378601,452.294373 
	C265.378601,443.069672 265.378601,435.211884 265.378601,427.083435 
	C267.618134,427.083435 269.382874,427.083435 271.475891,427.083435 
	C271.475891,438.925690 271.475891,450.795807 271.475891,462.603546 
	C267.154633,464.211121 264.463440,462.381042 262.391541,458.831451 
	C261.474792,457.260864 260.225220,455.884521 258.931152,454.119629 
z"/>
<path fill="#F0F0F0" opacity="1.000000" stroke="none" 
	d="
M405.871307,369.973877 
	C405.871613,365.495148 405.871613,361.506470 405.871613,357.165161 
	C407.912048,357.165161 409.779358,357.165161 411.817017,357.165161 
	C411.817017,368.986359 411.817017,380.747620 411.817017,392.618835 
	C407.706512,393.899933 405.128784,392.566254 402.729431,389.035553 
	C398.018250,382.102783 392.774292,375.532013 386.876831,367.642303 
	C386.876831,376.913422 386.876831,384.766418 386.876831,392.817200 
	C384.575256,392.817200 382.797363,392.817200 380.672729,392.817200 
	C380.672729,381.074097 380.672729,369.337128 380.672729,357.277222 
	C383.989502,356.197144 386.701477,356.502655 389.178986,360.105347 
	C394.211639,367.423645 399.749298,374.394684 405.871002,382.566254 
	C405.871002,377.637146 405.871002,374.050537 405.871307,369.973877 
z"/>
<path fill="#EFEFEF" opacity="1.000000" stroke="none" 
	d="
M39.335655,380.976349 
	C39.335114,372.832214 39.335114,365.183289 39.335114,357.385193 
	C46.262066,357.385193 53.035114,356.864655 59.682289,357.555389 
	C64.698669,358.076721 67.910851,361.818848 68.669922,366.965607 
	C69.552338,372.948761 67.534912,377.756073 61.533386,381.093323 
	C64.037315,384.860107 66.467216,388.515533 69.062386,392.419586 
	C64.826790,393.827362 61.533718,393.473938 59.935928,388.955017 
	C57.531429,382.154602 52.589600,380.920990 45.925125,382.585815 
	C45.925125,385.747894 45.925125,389.013000 45.925125,392.650818 
	C43.701679,392.650818 41.814766,392.650818 39.336201,392.650818 
	C39.336201,389.016052 39.336201,385.243805 39.335655,380.976349 
M56.420734,376.325806 
	C60.753857,375.794891 63.046364,373.367401 62.884781,368.982147 
	C62.714741,364.367523 59.634361,362.690033 55.550930,362.469025 
	C52.441040,362.300720 49.314739,362.435638 45.988380,362.435638 
	C45.988380,367.228607 45.988380,371.647186 45.988380,376.408905 
	C49.333664,376.408905 52.462212,376.408905 56.420734,376.325806 
z"/>
<path fill="#F4F4F4" opacity="1.000000" stroke="none" 
	d="
M344.701782,377.706360 
	C340.281433,377.706482 336.326630,377.706482 332.168091,377.706482 
	C332.168091,381.003723 332.168091,383.929962 332.168091,387.182770 
	C338.683655,387.182770 345.109283,387.182770 351.877625,387.182770 
	C351.877625,389.231293 351.877625,390.960938 351.877625,392.858246 
	C343.353760,392.858246 334.900757,392.858246 326.089020,392.858246 
	C326.089020,380.993103 326.089020,369.135468 326.089020,357.041504 
	C334.488281,357.041504 342.909943,357.041504 351.501007,357.041504 
	C351.501007,358.774292 351.501007,360.359589 351.501007,362.301178 
	C344.961731,362.301178 338.681366,362.301178 332.176453,362.301178 
	C332.176453,365.594360 332.176453,368.532593 332.176453,371.853302 
	C337.798767,371.853302 343.392761,371.853302 349.390869,371.853302 
	C349.518799,373.769653 349.623383,375.336884 349.760712,377.394135 
	C348.016937,377.512604 346.592133,377.609406 344.701782,377.706360 
z"/>
<path fill="#F4F4F4" opacity="1.000000" stroke="none" 
	d="
M185.740082,442.008118 
	C185.753922,436.848297 185.753922,432.186371 185.753922,427.166443 
	C194.207657,427.166443 202.597839,427.166443 211.480789,427.166443 
	C211.576004,428.545929 211.682526,430.089050 211.818512,432.059021 
	C205.225418,432.059021 198.970016,432.059021 192.336578,432.059021 
	C192.336578,435.463135 192.336578,438.483185 192.336578,441.899475 
	C197.835938,441.899475 203.432251,441.899475 209.416626,441.899475 
	C209.525330,443.825348 209.613892,445.394531 209.727325,447.404358 
	C203.800735,447.404358 198.209824,447.404358 192.288574,447.404358 
	C192.288574,450.873138 192.288574,453.926270 192.288574,457.324402 
	C198.804230,457.324402 205.230011,457.324402 211.970718,457.324402 
	C212.075623,459.236389 212.163086,460.830505 212.267380,462.731659 
	C203.427063,462.731659 194.852402,462.731659 185.726257,462.731659 
	C185.726257,456.041046 185.726257,449.273529 185.740082,442.008118 
z"/>
<path fill="#EDEDED" opacity="1.000000" stroke="none" 
	d="
M120.785904,393.033142 
	C112.829910,393.033386 105.354439,393.033386 97.593735,393.033386 
	C97.593735,380.954834 97.593735,369.184875 97.593735,357.102478 
	C105.942894,357.102478 114.358635,357.102478 123.178978,357.102478 
	C123.259583,358.604462 123.344025,360.177979 123.452835,362.205475 
	C116.884201,362.205475 110.630341,362.205475 104.086662,362.205475 
	C104.086662,365.566101 104.086662,368.496307 104.086662,371.822784 
	C109.580101,371.822784 115.177162,371.822784 121.017845,371.822784 
	C121.017845,373.949310 121.017845,375.684265 121.017845,377.707336 
	C115.279297,377.707336 109.834633,377.707336 104.094246,377.707336 
	C104.094246,380.891449 104.094246,383.796143 104.094246,387.284637 
	C110.601395,387.284637 117.159386,387.284637 124.184662,387.284637 
	C123.320091,389.787354 126.113014,393.206421 120.785904,393.033142 
z"/>
<path fill="#F3F3F3" opacity="1.000000" stroke="none" 
	d="
M403.452209,426.760956 
	C406.951111,427.753998 410.044403,428.698639 413.581085,429.778687 
	C412.436462,432.133789 411.671387,433.707916 411.012024,435.064575 
	C407.319122,434.109406 404.023010,432.713318 400.681824,432.595459 
	C398.659393,432.524078 396.567078,434.433441 394.506134,435.452820 
	C395.943542,437.228516 397.057861,439.539795 398.897156,440.649231 
	C401.397095,442.157135 404.459747,442.722748 407.265778,443.734833 
	C411.475403,445.253143 413.841614,448.268127 413.820190,452.744537 
	C413.797668,457.450439 411.162415,460.606384 406.826263,462.031555 
	C398.952942,464.619263 391.858704,463.015472 385.408478,457.529175 
	C386.173187,455.853119 386.843994,454.382904 387.656433,452.602264 
	C390.146637,453.881134 392.312653,455.439026 394.725494,456.112793 
	C397.369781,456.851196 400.289154,457.188568 402.995148,456.880127 
	C404.388733,456.721313 406.415466,454.914459 406.626038,453.606049 
	C406.836304,452.299377 405.487915,450.021271 404.202515,449.340759 
	C401.307251,447.807983 398.006073,447.058594 394.910706,445.883423 
	C389.437714,443.805511 387.051941,440.608002 387.430359,436.034485 
	C387.834229,431.153290 391.304352,427.792328 397.088196,426.930359 
	C399.041779,426.639221 401.058685,426.772980 403.452209,426.760956 
z"/>
<path fill="#F2F2F2" opacity="1.000000" stroke="none" 
	d="
M168.907364,357.023376 
	C171.757782,357.994110 174.206131,358.925354 176.920929,359.957947 
	C175.994537,362.045898 175.288712,363.636719 174.691086,364.983643 
	C170.683792,364.062653 167.043015,362.807922 163.335083,362.560822 
	C161.635910,362.447540 159.804718,364.315308 158.033386,365.284698 
	C159.266434,367.014465 160.136841,369.384430 161.812149,370.333435 
	C164.801437,372.026825 168.315643,372.766846 171.538803,374.080994 
	C175.308640,375.617981 177.214050,378.524689 177.252884,382.629120 
	C177.291733,386.733551 175.294662,389.557800 171.771378,391.436493 
	C165.139450,394.972717 155.944382,393.376068 148.916000,387.308746 
	C149.678802,385.792877 150.475769,384.209076 150.956390,383.253967 
	C155.302841,384.670288 159.240646,386.354492 163.350464,387.148560 
	C165.993179,387.659180 169.428802,387.497711 170.129166,383.754547 
	C170.825806,380.031311 167.762772,379.058685 165.078781,378.068909 
	C162.433624,377.093414 159.738602,376.253601 157.090317,375.286194 
	C153.040848,373.806976 150.948334,370.922668 150.977402,366.558990 
	C151.006607,362.173279 153.253494,359.001740 157.254608,357.953156 
	C160.843048,357.012695 164.742859,357.260345 168.907364,357.023376 
z"/>
<path fill="#F4F4F4" opacity="1.000000" stroke="none" 
	d="
M62.895157,429.276764 
	C63.240452,431.333679 63.240452,433.192474 63.240452,435.284821 
	C58.648006,434.127289 55.209465,432.787476 51.700584,432.566986 
	C49.821236,432.448883 47.820786,434.257843 45.874973,435.197144 
	C47.204376,437.025269 48.162922,439.479401 49.948627,440.537231 
	C52.747135,442.195068 56.144093,442.811127 59.214729,444.049103 
	C62.961979,445.559937 64.942078,448.376801 65.016586,452.507874 
	C65.090881,456.627136 63.117577,459.422943 59.631454,461.346375 
	C53.067142,464.968170 43.692562,463.422882 36.748066,457.338867 
	C37.447643,455.852936 38.196117,454.263184 38.524483,453.565704 
	C43.648533,454.863251 48.234810,456.430939 52.940445,456.985046 
	C54.485054,457.166962 56.339161,454.720581 58.051735,453.476135 
	C56.845417,451.889923 55.963043,449.684814 54.364445,448.848083 
	C51.167732,447.174896 47.543297,446.340179 44.161335,444.993835 
	C40.533943,443.549835 38.130692,440.583771 38.962711,436.877899 
	C39.649055,433.820923 41.445473,430.034088 43.930840,428.555115 
	C49.891228,425.008331 56.403912,426.197693 62.895157,429.276764 
z"/>
<path fill="#DEDEDE" opacity="1.000000" stroke="none" 
	d="
M158.918365,261.809753 
	C180.046188,238.299576 201.146927,214.764984 222.309036,191.285675 
	C246.157166,164.826248 270.071930,138.426910 293.902374,111.951607 
	C294.966614,110.769257 295.482513,109.093338 296.253784,107.647301 
	C297.040253,108.403839 297.826752,109.160370 298.613220,109.916908 
	C252.635757,160.861511 206.658310,211.806122 160.125397,262.754272 
	C159.352722,262.441803 159.135544,262.125793 158.918365,261.809753 
z"/>
<path fill="#F4F4F4" opacity="1.000000" stroke="none" 
	d="
M111.528191,457.149078 
	C114.196655,456.077209 116.441154,455.069458 119.760582,453.579102 
	C120.280205,454.254517 121.260773,455.529114 122.196831,456.745850 
	C118.165817,463.914185 103.775513,465.635803 96.284012,459.085571 
	C88.562851,452.334534 87.395676,440.746155 94.013107,433.149902 
	C101.212891,424.885162 113.634422,424.394958 122.333992,432.333893 
	C121.836334,433.044098 121.287361,433.793091 120.776314,434.567139 
	C120.320145,435.258026 119.905968,435.976654 120.114449,435.636261 
	C115.242943,434.317230 111.349953,432.344269 107.497940,432.421265 
	C100.571518,432.559692 95.590698,438.920563 96.040504,445.636719 
	C96.541763,453.120972 102.434151,457.649292 111.528191,457.149078 
z"/>
<path fill="#FBFBFB" opacity="1.000000" stroke="none" 
	d="
M455.004120,445.006226 
	C455.004120,451.133270 455.004120,456.762329 455.004120,462.767303 
	C453.088440,462.873535 451.343842,462.970276 449.106415,463.094330 
	C449.106415,452.899139 449.106415,442.854675 449.106415,432.371307 
	C445.065186,432.371307 441.487122,432.371307 437.627625,432.371307 
	C437.627625,430.387085 437.627625,428.844055 437.627625,427.055878 
	C447.196106,427.055878 456.595795,427.055878 466.291992,427.055878 
	C466.291992,428.727631 466.291992,430.281982 466.291992,432.224670 
	C462.561005,432.224670 458.959412,432.224670 455.004120,432.224670 
	C455.004120,436.574158 455.004120,440.541199 455.004120,445.006226 
z"/>
<path fill="#F3F3F3" opacity="1.000000" stroke="none" 
	d="
M241.105804,386.885620 
	C241.105606,376.758942 241.105606,367.117645 241.105606,357.136536 
	C243.122772,357.136536 245.019730,357.136536 247.374603,357.136536 
	C247.374603,367.005707 247.374603,376.886810 247.374603,387.248871 
	C252.723816,387.248871 257.638916,387.248871 262.799896,387.248871 
	C262.899170,389.321106 262.975708,390.918457 263.064667,392.775208 
	C255.778122,392.775208 248.704926,392.775208 241.106003,392.775208 
	C241.106003,390.914551 241.106003,389.142792 241.105804,386.885620 
z"/>
<path fill="#FBFBFB" opacity="1.000000" stroke="none" 
	d="
M455.219696,365.398346 
	C455.228241,374.677429 455.228241,383.491638 455.228241,392.655884 
	C453.255066,392.655884 451.386536,392.655884 449.142365,392.655884 
	C449.142365,382.724945 449.142365,372.801300 449.142365,362.535034 
	C445.359406,362.535034 441.925293,362.535034 438.001495,362.535034 
	C437.887085,360.651215 437.791779,359.082001 437.675049,357.160278 
	C447.302307,357.160278 456.707397,357.160278 466.647308,357.160278 
	C466.711914,358.538361 466.784180,360.080139 466.887695,362.288483 
	C463.798340,362.288483 460.998230,362.038086 458.283051,362.409210 
	C457.164948,362.562042 456.229614,364.051788 455.219696,365.398346 
z"/>
<path fill="#FAFAFA" opacity="1.000000" stroke="none" 
	d="
M308.454559,432.635132 
	C304.792023,432.350769 301.503571,432.350769 297.977600,432.350769 
	C297.977600,430.357941 297.977600,428.807526 297.977600,427.042725 
	C307.578125,427.042725 316.976685,427.042725 326.614899,427.042725 
	C326.614899,428.684631 326.614899,430.106476 326.614899,432.062531 
	C323.087158,432.062531 319.522797,432.062531 315.552612,432.062531 
	C315.552612,442.476044 315.552612,452.377411 315.552612,462.641479 
	C313.284882,462.641479 311.414978,462.641479 308.828644,462.641479 
	C308.828644,452.769226 308.828644,442.844360 308.454559,432.635132 
z"/>
<path fill="#E3E3E3" opacity="1.000000" stroke="none" 
	d="
M149.290649,434.171021 
	C149.290054,431.568054 149.290054,429.440735 149.290054,427.042236 
	C151.510498,427.042236 153.423752,427.042236 155.587860,427.042236 
	C155.587860,438.896698 155.587860,450.600616 155.587860,462.679321 
	C153.706238,462.679321 151.822479,462.679321 149.291245,462.679321 
	C149.291245,453.430695 149.291245,444.038666 149.290649,434.171021 
z"/>
<path fill="#E3E3E3" opacity="1.000000" stroke="none" 
	d="
M289.293152,383.935059 
	C289.292999,374.815521 289.292999,366.187286 289.292999,357.156372 
	C291.435486,357.156372 293.460419,357.156372 295.662720,357.156372 
	C295.662720,368.986298 295.662720,380.707611 295.662720,392.741272 
	C293.625061,392.741272 291.725006,392.741272 289.293304,392.741272 
	C289.293304,389.986572 289.293304,387.206451 289.293152,383.935059 
z"/>
<path fill="#E2E2E2" opacity="1.000000" stroke="none" 
	d="
M352.291504,438.044739 
	C352.291534,434.115479 352.291534,430.678192 352.291534,427.025848 
	C354.651764,427.025848 356.561462,427.025848 358.650574,427.025848 
	C358.650574,438.986664 358.650574,450.698395 358.650574,462.731873 
	C356.647980,462.731873 354.748901,462.731873 352.291443,462.731873 
	C352.291443,454.705811 352.291443,446.621246 352.291504,438.044739 
z"/>
<path fill="#FFFFFF" opacity="1.000000" stroke="none" 
	d="
M208.986511,356.850891 
	C210.005127,357.491669 211.007263,358.118011 211.012589,358.752747 
	C211.107590,370.039032 211.081497,381.326355 211.081497,392.803833 
	C208.948883,392.803833 207.201431,392.803833 205.003693,392.803833 
	C205.003693,381.584930 205.092499,370.467834 204.945816,359.353821 
	C204.905472,356.296997 206.732788,356.833496 208.986511,356.850891 
z"/>
<path fill="#DBDBDB" opacity="1.000000" stroke="none" 
	d="
M158.617157,261.965027 
	C159.135544,262.125793 159.352722,262.441803 159.825317,262.897003 
	C152.983597,271.044678 145.886475,279.053192 138.789337,287.061707 
	C138.272110,286.621735 137.754898,286.181732 137.237671,285.741730 
	C144.263763,277.867920 151.289856,269.994080 158.617157,261.965027 
z"/>
<path fill="#DEDEDE" opacity="1.000000" stroke="none" 
	d="
M309.660095,94.632759 
	C311.986816,92.116974 314.079865,89.865997 316.756897,86.986977 
	C315.927490,91.995735 302.761749,106.184250 298.648987,106.853561 
	C302.429688,102.659431 305.928040,98.778503 309.660095,94.632759 
z"/>
<path fill="#0B0B0B" opacity="1.000000" stroke="none" 
	d="
M56.005745,376.367371 
	C52.462212,376.408905 49.333664,376.408905 45.988380,376.408905 
	C45.988380,371.647186 45.988380,367.228607 45.988380,362.435638 
	C49.314739,362.435638 52.441040,362.300720 55.550930,362.469025 
	C59.634361,362.690033 62.714741,364.367523 62.884781,368.982147 
	C63.046364,373.367401 60.753857,375.794891 56.005745,376.367371 
z"/>
</svg>