<svg width="49" height="50" viewBox="0 0 49 50" fill="none" xmlns="http://www.w3.org/2000/svg">
<path d="M41.5 26.0209H34.9509C34.2509 26.0209 33.9009 26.0209 33.6382 26.2114C33.3756 26.402 33.2669 26.7347 33.0497 27.4001L31.9503 30.7667C31.7331 31.4321 31.6244 31.7648 31.3618 31.9553C31.0991 32.1459 30.7491 32.1459 30.0491 32.1459H18.9509C18.2509 32.1459 17.9009 32.1459 17.6382 31.9553C17.3756 31.7648 17.2669 31.4321 17.0497 30.7667L15.9503 27.4001C15.7331 26.7347 15.6244 26.402 15.3618 26.2114C15.0991 26.0209 14.7491 26.0209 14.0491 26.0209H7.5" stroke="#222222"/>
<path d="M19.5 19.8958L24.5 25M24.5 25L29.5 19.8958M24.5 25L24.5 10.7083" stroke="#DEDEDE"/>
<path d="M13.5 17.8541L8.75964 21.0802C8.29887 21.3938 8.06848 21.5506 7.90181 21.7562C7.75424 21.9382 7.64363 22.1472 7.57618 22.3716C7.5 22.6251 7.5 22.9038 7.5 23.4611V35.3908C7.5 36.3989 7.5 36.9029 7.69619 37.288C7.86876 37.6267 8.14413 37.902 8.48282 38.0746C8.86786 38.2708 9.3719 38.2708 10.38 38.2708H38.62C39.6281 38.2708 40.1321 38.2708 40.5172 38.0746C40.8559 37.902 41.1312 37.6267 41.3038 37.288C41.5 36.9029 41.5 36.3989 41.5 35.3908V23.4611C41.5 22.9038 41.5 22.6251 41.4238 22.3716C41.3564 22.1472 41.2458 21.9382 41.0982 21.7562C40.9315 21.5506 40.7011 21.3938 40.2404 21.0802L35.5 17.8541" stroke="#DEDEDE" stroke-linecap="round"/>
</svg>
