<svg width="32" height="32" viewBox="0 0 32 32" fill="none" xmlns="http://www.w3.org/2000/svg">
<path d="M15.9997 0C7.17756 0 0 7.17757 0 16C0 24.8227 7.17756 32 15.9997 32C24.8222 32 32 24.8227 32 16C31.9997 7.17757 24.8219 0 15.9997 0ZM15.9997 30.4219C8.0476 30.4219 1.57806 23.9524 1.57806 16C1.57806 8.04787 8.0476 1.57806 15.9997 1.57806C23.9519 1.57806 30.4219 8.04787 30.4219 16C30.4217 23.9524 23.9519 30.4219 15.9997 30.4219Z" fill="#484E53"/>
<path fill-rule="evenodd" clip-rule="evenodd" d="M15.707 6C10.182 6 5.70703 10.5882 5.70703 16.2529C5.70703 20.7899 8.56953 24.6219 12.5445 25.9804C13.0445 26.0701 13.232 25.7625 13.232 25.4934C13.232 25.2499 13.2195 24.4425 13.2195 23.5838C10.707 24.058 10.057 22.9558 9.85703 22.3791C9.74453 22.0843 9.25703 21.1743 8.83203 20.9308C8.48203 20.7386 7.98203 20.2644 8.81953 20.2516C9.60703 20.2388 10.1695 20.9949 10.357 21.3025C11.257 22.8533 12.6945 22.4175 13.2695 22.1484C13.357 21.4819 13.6195 21.0334 13.907 20.777C11.682 20.5207 9.35703 19.6364 9.35703 15.7147C9.35703 14.5997 9.74453 13.6769 10.382 12.9592C10.282 12.7029 9.93203 11.6519 10.482 10.2422C10.482 10.2422 11.3195 9.97301 13.232 11.2931C14.032 11.0624 14.882 10.947 15.732 10.947C16.582 10.947 17.432 11.0624 18.232 11.2931C20.1445 9.9602 20.982 10.2422 20.982 10.2422C21.532 11.6519 21.182 12.7029 21.082 12.9592C21.7195 13.6769 22.107 14.5868 22.107 15.7147C22.107 19.6492 19.7695 20.5207 17.5445 20.777C17.907 21.0975 18.2195 21.7126 18.2195 22.6738C18.2195 24.0452 18.207 25.1474 18.207 25.4934C18.207 25.7625 18.3945 26.0829 18.8945 25.9804C22.8445 24.6219 25.707 20.777 25.707 16.2529C25.707 10.5882 21.232 6 15.707 6V6Z" fill="#A9A9A9"/>
</svg>
