<svg width="32" height="32" viewBox="0 0 32 32" fill="none" xmlns="http://www.w3.org/2000/svg">
<path d="M15.9997 0C7.17757 0 0 7.17757 0 16C0 24.8227 7.17757 32 15.9997 32C24.8222 32 32 24.8227 32 16C31.9997 7.17757 24.8219 0 15.9997 0ZM15.9997 30.4219C8.0476 30.4219 1.57806 23.9524 1.57806 16C1.57806 8.04787 8.0476 1.57806 15.9997 1.57806C23.9519 1.57806 30.4219 8.04787 30.4219 16C30.4217 23.9524 23.9519 30.4219 15.9997 30.4219Z" fill="#484E53"/>
<path d="M7.87305 12.6096H11.5757V22.2711H7.87305V12.6096Z" fill="#A9A9A9"/>
<path d="M9.68841 11.0678C10.7234 11.0678 11.5624 10.3024 11.5624 9.35825C11.5624 8.41408 10.7234 7.64868 9.68841 7.64868C8.65345 7.64868 7.81445 8.41408 7.81445 9.35825C7.81445 10.3024 8.65345 11.0678 9.68841 11.0678Z" fill="#A9A9A9"/>
<path d="M20.8831 12.3909C20.1248 12.3909 19.4823 12.529 18.9541 12.8048C18.4265 13.081 17.9052 13.5402 17.3895 14.183V12.6092H13.9414V22.2706H17.6441V17.6308C17.6441 16.7513 17.7837 16.1422 18.0628 15.8024C18.3418 15.4628 18.7053 15.2929 19.1543 15.2929C19.5606 15.2929 19.876 15.4189 20.1006 15.6706C20.3252 15.9223 20.437 16.3513 20.437 16.9581V22.2706H24.1581V16.1301C24.1581 14.8563 23.8682 13.9148 23.2888 13.3051C22.7102 12.6954 21.9077 12.3909 20.8831 12.3909Z" fill="#A9A9A9"/>
</svg>
